<svg xmlns="http://www.w3.org/2000/svg" viewBox="0 0 500 300"><defs><style>.cls-1{isolation:isolate;}.cls-2{fill:#727272;}.cls-3{fill:#9881b7;}.cls-14,.cls-22,.cls-3,.cls-7{mix-blend-mode:multiply;}.cls-22,.cls-3{opacity:0.55;}.cls-32,.cls-34,.cls-4,.cls-5{fill:#fff;}.cls-5{font-size:95.82px;font-family:Broadway;letter-spacing:0.1em;}.cls-6{fill:#0254e4;}.cls-7{fill:#00a1cc;opacity:0.65;}.cls-8{fill:#292c3d;}.cls-9{fill:#f9a57e;}.cls-10{fill:#e76f59;}.cls-11{fill:#e8a393;}.cls-12{fill:#4d505e;}.cls-13{fill:#3d3848;}.cls-14{fill:#ca0045;opacity:0.32;}.cls-15{fill:#da395b;}.cls-16{fill:#ff4c6b;}.cls-17{fill:#d8d8d8;}.cls-18{fill:#afeaf0;}.cls-19{fill:#7695a8;}.cls-20{fill:#5ac4e0;}.cls-21{fill:#ffb089;}.cls-22{fill:#abacb3;}.cls-23{fill:#3f6a85;}.cls-24{fill:#5b5d6a;}.cls-25{fill:#273137;}.cls-26{fill:#f8f2ed;}.cls-27{fill:#48525b;}.cls-28{fill:#b6b6b6;}.cls-29{fill:#fff9fd;}.cls-30{fill:#8494ab;}.cls-31{fill:#b3b2da;}.cls-32,.cls-34{font-size:8.31px;font-family:Lato-Heavy, Lato;font-weight:800;}.cls-32{letter-spacing:0.05em;}.cls-33{letter-spacing:0.1em;}.cls-34{letter-spacing:0.1em;}.cls-35{letter-spacing:0.08em;}</style></defs><g class="cls-1"><g id="Layer_1" data-name="Layer 1"><rect class="cls-2" width="500" height="300"/><ellipse class="cls-3" cx="250" cy="191.9" rx="221.19" ry="7.9"/><path class="cls-4" d="M119.12,116.75h-.47v-1.89h.47Zm0-3.78h-.47v-1.89h.47Zm0-3.79h-.47v-1.89h.47Zm0-3.78h-.47v-1.89h.47Zm0-3.78h-.47V99.73h.47Zm0-3.78h-.47V96h.47Zm0-3.79h-.47V92.16h.47Zm0-3.78h-.47V88.38h.47Zm0-3.78h-.47V84.6h.47Zm0-3.78h-.47v-1.9h.47Zm0-3.79h-.47V77h.47Zm20.8-3.32H138v-.47h1.89Zm-3.78,0h-1.89v-.47h1.89Zm-3.79,0h-1.89v-.47h1.89Zm-3.78,0h-1.89v-.47h1.89Zm-3.78,0H122.9v-.47h1.89Zm-3.78,0h-1.89v-.47H121Z"/><circle class="cls-4" cx="118.89" cy="116.7" r="0.89"/><path class="cls-4" d="M119.89,116.7a1,1,0,1,0-1,1,1,1,0,0,0,1-1Zm-1.77,0a.77.77,0,1,1,.77.77.77.77,0,0,1-.77-.77Z"/><path class="cls-4" d="M141.54,76.26a.89.89,0,1,0-.88-.89A.89.89,0,0,0,141.54,76.26Z"/><path class="cls-4" d="M141.54,76.38a1,1,0,1,1,1-1,1,1,0,0,1-1,1Zm0-1.78a.77.77,0,1,0,.77.77.77.77,0,0,0-.77-.77Z"/><path class="cls-4" d="M230.21,116.76h-.48V115h.48Zm0-3.68h-.48v-1.89h.48Zm0-3.78h-.48v-1.9h.48Zm0-3.79h-.48v-1.89h.48Zm0-3.78h-.48V99.84h.48Zm0-3.78h-.48V96.06h.48Zm0-3.79h-.48V92.27h.48Zm0-3.78h-.48V88.49h.48Zm0-3.78h-.48V84.71h.48Zm0-3.78h-.48V80.93h.48Zm-1-2.77H227.3v-.47h1.89Zm-3.78,0h-1.89v-.47h1.89Zm-3.79,0h-1.89v-.47h1.89Z"/><path class="cls-4" d="M219.78,80.7a.89.89,0,1,1,.89-.89A.89.89,0,0,1,219.78,80.7Z"/><path class="cls-4" d="M219.78,80.82a1,1,0,1,0-1-1,1,1,0,0,0,1,1Zm0-1.78a.77.77,0,1,1-.77.77.77.77,0,0,1,.77-.77Z"/><path class="cls-4" d="M229.08,116.71a.89.89,0,1,0,.89-.89A.88.88,0,0,0,229.08,116.71Z"/><path class="cls-4" d="M229,116.71a1,1,0,1,1,1,1,1,1,0,0,1-1-1Zm1.78,0a.77.77,0,1,0-1.54,0,.77.77,0,0,0,1.54,0Z"/><path class="cls-4" d="M393,108.6h-.47v-1.9H393Zm0-3.79h-.47v-1.89H393Zm0-3.78h-.47V99.14H393Zm0-3.78h-.47V95.36H393Zm0-3.79h-.47V91.57H393Zm0-3.78h-.47V87.79H393Z"/><path class="cls-4" d="M393.63,108.55a.89.89,0,1,1-.89-.89A.88.88,0,0,1,393.63,108.55Z"/><path class="cls-4" d="M393.75,108.55a1,1,0,1,0-1,1,1,1,0,0,0,1-1Zm-1.78,0a.77.77,0,1,1,.77.77.77.77,0,0,1-.77-.77Z"/><path class="cls-4" d="M393.63,87.79a.89.89,0,1,0-.89.89A.89.89,0,0,0,393.63,87.79Z"/><path class="cls-4" d="M393.75,87.79a1,1,0,1,1-1-1,1,1,0,0,1,1,1Zm-1.78,0a.77.77,0,1,0,.77-.77.77.77,0,0,0-.77.77Z"/><path class="cls-4" d="M306.69,110.76h-.32v-1.12h.32Zm0-3h-.32v-1.89h.32Zm0-3.78h-.32v-1.89h.32Zm0-3.78h-.32V98.3h.32Zm0-3.79h-.32V94.51h.32Zm0-3.78h-.32V90.73h.32Zm0-3.78h-.32V87h.32Zm0-3.78h-.32v-1.9h.32Zm39-3.65h-1.27v-.48h1.27Zm-2.53,0H341.9v-.48h1.27Zm-2.54,0h-1.26v-.48h1.26Zm-2.53,0h-1.26v-.48h1.26Zm-2.53,0h-1.26v-.48h1.26Zm-2.53,0h-1.27v-.48H333Zm-2.53,0h-1.27v-.48h1.27Zm-2.53,0h-1.27v-.48H328Zm-2.53,0h-1.27v-.48h1.27Zm-2.54,0h-1.26v-.48h1.26Zm-2.53,0h-1.26v-.48h1.26Zm-2.53,0h-1.26v-.48h1.26Zm-2.53,0h-1.27v-.48h1.27Zm-2.53,0h-1.27v-.48h1.27Zm-2.53,0H309v-.48h1.27Zm-2.53,0h-1.2v-.14h-.16v-.34h1.36Z"/><path class="cls-4" d="M345.66,80.28c.33,0,.6.4.6.89s-.27.89-.6.89-.59-.4-.59-.89S345.34,80.28,345.66,80.28Z"/><path class="cls-4" d="M345.66,80.16c-.37,0-.67.46-.67,1s.3,1,.67,1,.68-.45.68-1-.3-1-.68-1Zm0,1.78c-.28,0-.51-.34-.51-.77s.23-.77.51-.77.52.35.52.77-.23.77-.52.77Z"/><ellipse class="cls-4" cx="306.53" cy="110.71" rx="0.59" ry="0.89"/><path class="cls-4" d="M305.85,110.71c0-.55.31-1,.68-1s.67.46.67,1-.3,1-.67,1-.68-.45-.68-1Zm1.19,0c0-.42-.23-.77-.51-.77s-.52.35-.52.77.23.77.52.77.51-.34.51-.77Z"/><path class="cls-4" d="M321.13,225.07h-1.9v-.48h1.9Zm-3.79,0h-1.89v-.48h1.89Zm-3.78,0h-1.89v-.48h1.89Zm-3.78,0h-1.89v-.48h1.89Zm-3.78,0h-1.9v-.48H306Zm-3.79,0h-1.89v-.48h1.89Zm-3.78,0h-1.89v-.48h1.89Zm-3.78,0h-1.89v-.48h1.89Zm-2.34-1.45h-.48v-1.89h.48Zm0-3.78h-.48V218h.48Zm0-3.78h-.48v-1.89h.48Zm0-3.78h-.48v-1.9h.48Z"/><path class="cls-4" d="M291.18,210.43a.89.89,0,1,1,.89.89A.88.88,0,0,1,291.18,210.43Z"/><path class="cls-4" d="M291.06,210.43a1,1,0,1,0,1-1,1,1,0,0,0-1,1Zm1.78,0a.77.77,0,0,1-1.54,0,.77.77,0,0,1,1.54,0Z"/><path class="cls-4" d="M321.7,225.72a.89.89,0,1,0-.89-.89A.89.89,0,0,0,321.7,225.72Z"/><path class="cls-4" d="M321.7,225.84a1,1,0,1,1,1-1,1,1,0,0,1-1,1Zm0-1.78a.77.77,0,0,0,0,1.54.77.77,0,1,0,0-1.54Z"/><path class="cls-4" d="M431.83,217.69h-1.89v-.48h1.89Zm-3.78,0h-1.89v-.48h1.89Zm5.29-.86h-.47v-1.89h.47Zm0-3.78h-.47v-1.89h.47Z"/><path class="cls-4" d="M423.42,218.34a.89.89,0,1,1,.89-.89A.89.89,0,0,1,423.42,218.34Z"/><path class="cls-4" d="M423.42,218.46a1,1,0,1,0-1-1,1,1,0,0,0,1,1Zm0-1.78a.77.77,0,1,1-.77.77.77.77,0,0,1,.77-.77Z"/><path class="cls-4" d="M434,210.75a.89.89,0,1,0-.89.89A.88.88,0,0,0,434,210.75Z"/><path class="cls-4" d="M434.11,210.75a1,1,0,1,1-1-1,1,1,0,0,1,1,1Zm-1.77,0a.77.77,0,1,0,.77-.77.77.77,0,0,0-.77.77Z"/><path class="cls-4" d="M73.9,217.48h-.79V217h.79Zm-2.68,0H69.33V217h1.89Zm-3.78,0h-1.9V217h1.9Zm-3.79,0H61.76V217h1.89ZM61.36,216h-.48V214.1h.48Zm0-3.78h-.48v-1.89h.48Zm0-3.78h-.48v-1.89h.48Zm0-3.79h-.48v-1.89h.48Z"/><path class="cls-4" d="M60.23,202.8a.89.89,0,1,1,.89.89A.89.89,0,0,1,60.23,202.8Z"/><path class="cls-4" d="M60.11,202.8a1,1,0,1,0,1-1,1,1,0,0,0-1,1Zm1.78,0a.77.77,0,1,1-1.54,0,.77.77,0,1,1,1.54,0Z"/><path class="cls-4" d="M73.85,218.13a.89.89,0,1,0-.89-.89A.89.89,0,0,0,73.85,218.13Z"/><path class="cls-4" d="M73.85,218.25a1,1,0,1,1,1-1,1,1,0,0,1-1,1Zm0-1.78a.77.77,0,1,0,.77.77.77.77,0,0,0-.77-.77Z"/><text class="cls-5" transform="translate(71.24 181.75) scale(0.61 1)">WEBSIGHT</text><path class="cls-4" d="M152.27,219.37H151v-.47h.76v-.65h.47Zm-3.12,0h-1.9v-.47h1.9Zm-3.79,0h-1.89v-.47h1.89Zm-3.78,0h-1.89v-.47h1.89Zm-3.78,0h-1.89v-.47h1.89Zm-3.79,0h-1.89v-.47H134Zm-3.78,0h-1.89v-.47h1.89Zm22-3h-.47v-1.9h.47Zm0-3.79h-.47v-1.89h.47Zm0-3.78h-.47V206.9h.47Z"/><path class="cls-4" d="M124.09,220a.89.89,0,1,1,.89-.89A.89.89,0,0,1,124.09,220Z"/><path class="cls-4" d="M124.09,220.15a1,1,0,1,0,0-2,1,1,0,1,0,0,2Zm0-1.78a.77.77,0,1,1-.77.77.77.77,0,0,1,.77-.77Z"/><path class="cls-4" d="M152.93,206.59a.89.89,0,1,0-.89.89A.89.89,0,0,0,152.93,206.59Z"/><path class="cls-4" d="M153,206.59a1,1,0,1,1-1-1,1,1,0,0,1,1,1Zm-1.77,0a.77.77,0,1,0,1.54,0,.77.77,0,0,0-1.54,0Z"/><path class="cls-4" d="M194.85,219.33h-1.42v-.47h1.42Zm-3.31,0h-1.89v-.47h1.89Zm-3.78,0h-1.89v-.47h1.89Zm-3.79,0h-1.89v-.47H184Zm-3.78,0h-1.82v-.54h.47v.07h1.35Zm-1.35-2.43h-.47V215h.47Zm0-3.78h-.47v-1.89h.47Zm0-3.78h-.47v-1.9h.47Z"/><circle class="cls-4" cx="178.6" cy="207.5" r="0.89"/><path class="cls-4" d="M177.6,207.5a1,1,0,1,0,1-1,1,1,0,0,0-1,1Zm1.78,0a.78.78,0,1,1-.78-.78.78.78,0,0,1,.78.78Z"/><path class="cls-4" d="M194.8,220a.89.89,0,1,0-.89-.89A.89.89,0,0,0,194.8,220Z"/><path class="cls-4" d="M194.8,220.1a1,1,0,1,1,1-1,1,1,0,0,1-1,1Zm0-1.77a.77.77,0,0,0,0,1.54.77.77,0,0,0,0-1.54Z"/><path class="cls-4" d="M258.48,219.48h-1.16V219H258v-.74h.47Zm-3.05,0h-1.89V219h1.89Zm3.05-3.1H258v-1.89h.47Zm0-3.78H258v-1.89h.47Z"/><path class="cls-4" d="M250.55,220.13a.89.89,0,1,1,.89-.89A.89.89,0,0,1,250.55,220.13Z"/><path class="cls-4" d="M250.55,220.25a1,1,0,1,0-1-1,1,1,0,0,0,1,1Zm0-1.78a.77.77,0,1,1,0,1.54.77.77,0,1,1,0-1.54Z"/><path class="cls-4" d="M259.13,210.23a.89.89,0,1,0-.89.89A.89.89,0,0,0,259.13,210.23Z"/><path class="cls-4" d="M259.25,210.23a1,1,0,1,1-1-1,1,1,0,0,1,1,1Zm-1.78,0a.77.77,0,1,0,.77-.77.77.77,0,0,0-.77.77Z"/><path class="cls-6" d="M285,102s1.58,5.68,2.35,6.6a16,16,0,0,0,3.3,2.3l-.67,1.19s-4.59-2.34-5.39-4.26a15.2,15.2,0,0,1-.93-2.94c-.13-.7-.64-2.45-.39-3.15A1,1,0,0,1,285,102Z"/><path class="cls-7" d="M285,102s1.58,5.68,2.35,6.6a16,16,0,0,0,3.3,2.3l-.67,1.19s-4.59-2.34-5.39-4.26a15.2,15.2,0,0,1-.93-2.94c-.13-.7-.64-2.45-.39-3.15A1,1,0,0,1,285,102Z"/><path class="cls-8" d="M300.79,129.13l1.16-1.08s4.64-.34,4.91.07-4.4,2.61-5,2.57S300.87,129.58,300.79,129.13Z"/><path class="cls-9" d="M292.29,113.44s4.39-1.11,4.75-.39,4.91,15,4.91,15l-1.16,1.08s-4.88-12-6.29-13.31S291.64,113.94,292.29,113.44Z"/><path class="cls-10" d="M292.29,113.44s4.39-1.11,4.75-.39,4.91,15,4.91,15l-1.16,1.08s-4.88-12-6.29-13.31S291.64,113.94,292.29,113.44Z"/><path class="cls-9" d="M290,110.81a4.21,4.21,0,0,0,.91-.36,1.13,1.13,0,0,1,.77-.22c.21,0,1.9.73,1.45,1-.15.1-.51-.07-.65-.13s-.42-.17-.62-.26c.18,0,1.09.38,1,.59-.17.37-1.09-.13-1.31-.25.17,0,.74.24.74.45s-.68.06-.83,0a1,1,0,0,0-.31-.15,1.14,1.14,0,0,0-.41.07,2.47,2.47,0,0,1-.72,0c-.14,0-.47,0-.54-.11a.52.52,0,0,1,.09-.51A1.06,1.06,0,0,1,290,110.81Z"/><path class="cls-11" d="M290,110.81a4.21,4.21,0,0,0,.91-.36,1.13,1.13,0,0,1,.77-.22c.21,0,1.9.73,1.45,1-.15.1-.51-.07-.65-.13s-.42-.17-.62-.26c.18,0,1.09.38,1,.59-.17.37-1.09-.13-1.31-.25.17,0,.74.24.74.45s-.68.06-.83,0a1,1,0,0,0-.31-.15,1.14,1.14,0,0,0-.41.07,2.47,2.47,0,0,1-.72,0c-.14,0-.47,0-.54-.11a.52.52,0,0,1,.09-.51A1.06,1.06,0,0,1,290,110.81Z"/><polygon class="cls-8" points="297.63 103.23 298.66 103.65 295.12 112.21 294.07 111.64 297.63 103.23"/><rect class="cls-8" x="287.7" y="111.49" width="6.75" height="1.05"/><path class="cls-8" d="M275.77,106.62c.9-.52,1.05-1.09.55-3a4,4,0,0,1,2.07-4.36c.92-.38,1.73-.55,2.3-1.53s-.51-3.09,1.27-4.65c1.3-1.13,3.16-.23,3.16-.23.4-.22.57,2.12.6,3.87-2.26,3.46-1.61,8-.79,11.83a2.58,2.58,0,0,0,.08.26c-.18,3-.32,5.46-.32,5.46s-5.42,3.07-9.11.44S274,107.65,275.77,106.62Z"/><path class="cls-8" d="M291.71,128.43l1.37.79s1.69,4.33,1.38,4.71-3.79-3.44-3.92-4S291.3,128.63,291.71,128.43Z"/><path class="cls-9" d="M290,113.19s8.84.61,9.67,1.41-6.68,14.53-6.68,14.53l-1.23-.7s1.85-6.54,2.34-8.05,1.41-3.34,1.23-3.58-9.08,1.1-9-1.41S290,113.19,290,113.19Z"/><path class="cls-9" d="M285.59,98.27a8.35,8.35,0,0,0-.36,4.41l-3.1-.74a35.19,35.19,0,0,1,1.81-5C284.48,96.26,285.59,98.27,285.59,98.27Z"/><path class="cls-10" d="M285.59,98.27a8.35,8.35,0,0,0-.36,4.41l-3.1-.74a35.19,35.19,0,0,1,1.81-5C284.48,96.26,285.59,98.27,285.59,98.27Z"/><path class="cls-9" d="M285.91,95a4.74,4.74,0,0,1,1.49,1c.29.49,0,1.16.06,1.6a7,7,0,0,1,.08,1.21c-.07.11-.51,0-.58.1s-.65.45-.83.86-.42.44-.84.24a6.82,6.82,0,0,1-2-3.32A2.18,2.18,0,0,1,285.91,95Z"/><path class="cls-8" d="M284.89,93.63a8.49,8.49,0,0,1,.62,1.56,3.69,3.69,0,0,1-.62,1.94c-.25.17,0-1.47-.68-1s0,1.45,0,1.65a1.16,1.16,0,0,1-1,.87c-.66.06-1.74-3.21-1-4A3.72,3.72,0,0,1,284.89,93.63Z"/><path class="cls-12" d="M281.18,110.47l4.1-.31s2.13,2.38,4.24,2.38h7.21a12.89,12.89,0,0,1-2.1,5.38,92.1,92.1,0,0,1-10.21.23C281.08,117.87,277.91,114.2,281.18,110.47Z"/><path class="cls-13" d="M280.8,111a5.31,5.31,0,0,1,.38-.48l4.1-.31s2.08,2.31,4.16,2.38C286.92,112.79,282.12,113.35,280.8,111Z"/><path class="cls-14" d="M294.83,113c-1.05-.1-2.06-.35-3.09-.48h4.52C295.81,112.77,295.59,113.1,294.83,113Z"/><path class="cls-6" d="M282.53,100.51a17.52,17.52,0,0,0,2.52.81s1.32,2.92,1.84,3.71-1.31,3.82-1.41,5.13c0,0-1.1,1-4.42.4C281.06,110.56,280.19,102.35,282.53,100.51Z"/><path class="cls-7" d="M282,102.25a1.59,1.59,0,0,1,1.86.59c.35.71,0,2,0,2.75a16.05,16.05,0,0,0,.3,2.69,5.63,5.63,0,0,0,1.09,2c-.43.25-1.66.77-4.24.27,0,0-.53-5,.35-8.08A6.27,6.27,0,0,0,282,102.25Z"/><path class="cls-9" d="M289.38,110.81a4.29,4.29,0,0,0,.92-.36,1.13,1.13,0,0,1,.77-.22c.21,0,1.89.73,1.44,1-.14.1-.5-.07-.65-.13a5.59,5.59,0,0,1-.61-.26c.18,0,1.09.38,1,.59-.16.37-1.09-.13-1.3-.25.16,0,.73.24.73.45s-.68.06-.82,0a1,1,0,0,0-.31-.15,1.2,1.2,0,0,0-.42.07,2.47,2.47,0,0,1-.72,0c-.14,0-.46,0-.53-.11A.5.5,0,0,1,289,111,1,1,0,0,1,289.38,110.81Z"/><path class="cls-6" d="M289.67,110.77l-.36,1.36s-8.88-1-9.09-2.61.36-8.9,2.51-8.14,0,6.08.36,6.49S289.67,110.77,289.67,110.77Z"/><path class="cls-8" d="M284.8,93a1.79,1.79,0,0,1,2.17.1c1.1.89,1.06,2.22,2,2.11,0,0-.6,1.54-1.92,1.18S284.35,93.94,284.8,93Z"/><path class="cls-11" d="M70.37,107.74a1.64,1.64,0,0,1-.64-.52.83.83,0,0,0-.23-.3,1.83,1.83,0,0,1-.3-.32c-.09-.1-.18-.24-.33-.28s-.12.17-.07.32.51.45.45.62-.58-.22-.68-.3-.21-.41-.33-.66-.14-.2-.23,0a.49.49,0,0,0,0,.39,1.67,1.67,0,0,0,.44.67,1.91,1.91,0,0,1-.47-.58c-.07-.13-.26-.72-.47-.63-.42.17.4,1.32.62,1.44a2.47,2.47,0,0,1-.51-.56c-.09-.12-.29-.42-.39-.17s.56.81.83,1.06a2.79,2.79,0,0,1-.59-.42c-.25-.2-.31.06-.09.31a3.55,3.55,0,0,0,.37.31,2.41,2.41,0,0,0,1.49.54c.22,0,.61.29.77.18S70.31,108.05,70.37,107.74Z"/><path class="cls-15" d="M70.06,107.11s4.79,1.33,5.28,1.3,1.61-4.25,2.06-6.33c0-.19.68-.21,1.4-.81.3-.26,1.18.23,1.47,0a2,2,0,0,1,.38,2.22c-1.09,2.41-2,7-4.54,7.09a16.19,16.19,0,0,1-6.7-1.67Z"/><path class="cls-11" d="M69,107.68a3.68,3.68,0,0,0,.22-.42c.06-.17-.39-.46-.45-.62s-.1-.37.07-.32.24.18.33.28a1.83,1.83,0,0,0,.3.32.83.83,0,0,1,.23.3.93.93,0,0,0,.21.23A2.38,2.38,0,0,1,69,107.68Z"/><path class="cls-8" d="M67.8,122.37s-.44,2.06-.86,2.25-4.75-.87-5-1.36.1-1,1-1a11.76,11.76,0,0,0,2,.24c.6-.08,1.18-1.21,1.18-1.21Z"/><path class="cls-8" d="M75.17,127.06s1.11,1.79,1,2.22-4,2.67-4.55,2.49-.62-.79.07-1.41,1.23-.71,1.65-1.25,0-1.69,0-1.69Z"/><path class="cls-6" d="M81.67,111.83a6.84,6.84,0,0,1-2.57.81c-.82-.11-7.8.44-8.62,1.11S73,127.9,73,127.9l2.77-.47s-1-9.84-.83-9.91,4.34-.06,11.47-.06c1.74,0,3.68-3.65,1.48-6.21Z"/><path class="cls-7" d="M71.69,114.85a8.43,8.43,0,0,0,.77-1.89,48.52,48.52,0,0,1,6.64-.32,6.84,6.84,0,0,0,2.57-.81l.4,0a3.31,3.31,0,0,1-1.83,1.51c-.88.19-1.8.24-2.67.47a5.27,5.27,0,0,0-3.67,2.69,40.42,40.42,0,0,0-2.23,5.7c-.45-2-.92-4.18-1.19-5.88A3.66,3.66,0,0,0,71.69,114.85Z"/><path class="cls-6" d="M81,110.33s-8.32.5-9.11,1.28-6.15,10-6.15,10l2.21,1.59s4.38-6.47,6.49-9a3.13,3.13,0,0,1,1.88-1.07c.9-.15,2.22-.35,3.2-.41a3.54,3.54,0,0,0,2.4-.91Z"/><path class="cls-9" d="M78.81,97.49a3.08,3.08,0,0,0,.68-.56,5.64,5.64,0,0,0,1.61,2.95,6.2,6.2,0,0,1-3.08.76,10.12,10.12,0,0,0-.45-2.82A3,3,0,0,0,78.81,97.49Z"/><path class="cls-10" d="M78.81,97.49a3.08,3.08,0,0,0,.68-.56,5.64,5.64,0,0,0,1.61,2.95,6.2,6.2,0,0,1-3.08.76,10.12,10.12,0,0,0-.45-2.82A3,3,0,0,0,78.81,97.49Z"/><path class="cls-9" d="M77.41,92.52s-2.14.14-2.59.74a2.91,2.91,0,0,0-.11,2.62c.37.65-.11,1.76,0,2s.74.11.79.18S76,99.4,77,99.29a4.08,4.08,0,0,0,2.76-2.62C80,95.75,79.36,92.26,77.41,92.52Z"/><path class="cls-8" d="M73.89,94a2.62,2.62,0,0,0,.27-.56,2.36,2.36,0,0,1,0-.38c.09-.4.06-.64.82-1.25a2.89,2.89,0,0,1,2.52-.37,2.36,2.36,0,0,1,.8.42c.07.06.28.22.28.31s-.26.29-.32.37A3.25,3.25,0,0,0,78,93c-.6,1-1.67,2.32-3,1.71a4.41,4.41,0,0,1-.52-.28,2.78,2.78,0,0,0,.23,1.37,1.18,1.18,0,0,1-.63-.46A1.41,1.41,0,0,1,73.89,94Z"/><path class="cls-8" d="M77.9,92.36a1.7,1.7,0,0,1,.89-.38,1.19,1.19,0,0,1,1.23.63,5.31,5.31,0,0,1,.43.86,3.75,3.75,0,0,1,.3,1.44,3.53,3.53,0,0,1-.31,1.57c-.22.43-.75,1-1.13,1-.15,0-.69-.85-.75-1.1s.06-.29.2-.46.45-.76.09-1c-.52-.4-1,.06-.95.87,0,0-.08.5-.23.48S76.14,94.41,77.9,92.36Z"/><path class="cls-16" d="M89.27,112s-2.48,2.67-9,.83a13.82,13.82,0,0,0-.92-3.24,32.14,32.14,0,0,1-2-6.49,3.65,3.65,0,0,1,.71-2.93s1.24.92,2.74-.64a7.36,7.36,0,0,1,5.13,3.79A50.49,50.49,0,0,1,89.27,112Z"/><path class="cls-15" d="M80.28,102.33a2.27,2.27,0,0,0,.06-.25c1.57.76,1.37,2.28,1,4.56-.29,1.75-1.13,4.52-1.3,5.14a12.91,12.91,0,0,0-.71-2.17c-.32-.75-.73-1.82-1.1-2.93a11.19,11.19,0,0,0,1.29-2.7C79.72,103.41,80.12,102.92,80.28,102.33Z"/><path class="cls-4" d="M69.59,106.13l-5.5-3.28a10.28,10.28,0,0,0-2.57,4.65l6.24,2.92S68.73,108.13,69.59,106.13Z"/><path class="cls-17" d="M65.34,108.19a5.71,5.71,0,0,0,3.28-2.64l1,.58c-.86,2-1.83,4.29-1.83,4.29l-4.56-2.13A4.61,4.61,0,0,0,65.34,108.19Z"/><path class="cls-9" d="M69.61,109.51a1.52,1.52,0,0,1-.82-.1.87.87,0,0,0-.35-.13,2.26,2.26,0,0,1-.43-.11.89.89,0,0,0-.43-.07c-.17.05,0,.22.11.31s.67.11.71.29-.6.12-.73.11c-.3,0-.4-.24-.63-.39s-.22-.09-.22.09.14.24.24.32a1.64,1.64,0,0,0,.73.34,1.83,1.83,0,0,1-.71-.25c-.13-.07-.6-.47-.74-.28-.26.37,1,.91,1.3.89a2.33,2.33,0,0,1-.73-.2c-.14-.06-.47-.2-.42.06s.9.39,1.27.46a2.58,2.58,0,0,1-.73,0c-.32,0-.23.21.09.3a4.31,4.31,0,0,0,.48.08,2.44,2.44,0,0,0,1.54-.34c.2-.1.68-.07.75-.25C70,110.25,69.73,109.81,69.61,109.51Z"/><path class="cls-16" d="M69.48,109.3l-.16,1.84s7.93.64,8.84.06a4.29,4.29,0,0,0,1.63-2.36c.57-1.69,2.84-6.35.79-7.06a1.45,1.45,0,0,0-1.91.61c-1,1.87-2,6-2.25,6.22S69.48,109.3,69.48,109.3Z"/><path class="cls-8" d="M137.18,152s1.14,3.33,1.8,4.79c3.71,8.19-3.16,7.14-5.77,6.76s-5.59-1.37-5.42-3.48c.11-1.44,1-1.6,1.33-2.08s-.33-1.27,0-2.45,2.27-1.42,2.66-1.74a2.8,2.8,0,0,0,.8-2.94c-.39-1.71-.56-2.62.55-3.74a3.12,3.12,0,0,1,2.84-.63Z"/><path class="cls-9" d="M150,164.68c-.24-.18-1.15.34-1.81.55a6.74,6.74,0,0,1-1.73.16,6,6,0,0,1-.13,1c.42,0,.74.1,1,.08s.94-.11,1.17-.15a1.08,1.08,0,0,1,.74.08c.74.61,1.15.66,1.25.44,0,0-.58-.56-.78-.78.33.29,1.12.87,1.29.69s-.62-.81-.93-1.08c.33.28,1.18,1,1.39.93C152.05,166.4,150.23,164.86,150,164.68Z"/><rect class="cls-8" x="143.95" y="166.46" width="9.24" height="1.19"/><path class="cls-16" d="M147.18,165.23l-.33,1.35a28.34,28.34,0,0,1-5.7-1.14c-1.45-.67-2.9-4.11-2.9-4.11l1.11-4.34s2.14,5.65,2.88,6.36S147.18,165.23,147.18,165.23Z"/><rect class="cls-18" x="145.52" y="150.28" width="19.76" height="12.6" rx="0.87"/><path class="cls-8" d="M146.54,162V151.15a.87.87,0,0,1,.87-.87h-1a.87.87,0,0,0-.87.87V162a.87.87,0,0,0,.87.87h1A.87.87,0,0,1,146.54,162Z"/><path class="cls-8" d="M155.43,166s.4-3.83-1.35-5.13c0,0-.4-.32.26-.7s2.47-.8,3.08.32a9.78,9.78,0,0,1,.77,5.51Z"/><rect class="cls-18" x="130.38" y="175.13" width="0.82" height="21.53"/><rect class="cls-18" x="145.52" y="175.13" width="0.82" height="21.53"/><rect class="cls-8" x="128.19" y="173.86" width="20.34" height="2.11"/><path class="cls-8" d="M139.23,187s-2.08,1.81-2.06,2.07,3.55,6.28,4.16,6.3.76-1,.66-1.42-1.23-6.13-1.23-6.13Z"/><path class="cls-8" d="M136.22,188.14a14.78,14.78,0,0,0-2,2.13c0,.27,3.73,6.17,4.35,6.17s.73-1,.62-1.44-1.42-6.09-1.42-6.09Z"/><path class="cls-12" d="M137.52,167.49s2.63,1.25,5.64,2.43c1.92.74,4.59,1.72,4.5,3.78-.06,1.5-6.09,15.93-6.09,15.93l-2.74-1.37s5-12.15,4.93-13-.67-.09-5.63-.54-6.47-1.39-6.43-3.75,1.33-5.64,3.34-6.48S137.52,167.49,137.52,167.49Z"/><path class="cls-13" d="M137.52,167.49a9.76,9.76,0,0,0,4,2.45c1.91.75,4.29,2.12,4.29,3.43,0,1.5-5.62,15.58-5.62,15.58l-1.38-.69s5-12.15,4.93-13-.67-.09-5.63-.54-6.47-1.39-6.43-3.75,1.33-5.64,3.34-6.48S137.52,167.49,137.52,167.49Z"/><path class="cls-12" d="M136.16,165.7s.8,3.32,2.69,4.12,6.25,1.69,6.25,3.79c0,1.5-6.5,16.35-6.5,16.35l-3.32-1.56s4.39-12,4.28-12.84.33-.42-4.65-.72-5.64-1.25-5.68-3.6,3-5.54,3-5.54A5.07,5.07,0,0,1,136.16,165.7Z"/><path class="cls-10" d="M137.46,151.39s-.79,3.21.67,4.86c0,0,2,2.61-1.12,3.06s-2.67-3.57-2.67-3.57.53-4.44-.27-6.36C134.07,149.38,136.06,150.48,137.46,151.39Z"/><path class="cls-9" d="M135.4,146.84s4.2.21,4.23,1.25a21.34,21.34,0,0,0-.22,2.63c.31,2-.83,4.11-1.33,4.2-.77.13-3.38-1-3.78-2.6S133.78,146.21,135.4,146.84Z"/><path class="cls-9" d="M139.4,165.43s.88.11,1.07.11,2.61-1.37,2.88-1.18,2.73,1.91,2.65,2.24-.76.14-2.07-1c0,0,1.74,1.24,1.4,1.53s-1.85-1.08-1.85-1.08,1.57,1.17,1.19,1.43-1.75-1.13-1.75-1.13,1.08,1.05.93,1.22-.83-.12-1.58-.82c0,0-.14-.08-.54.13a10.9,10.9,0,0,1-2.84-.19Z"/><path class="cls-8" d="M140,150.07s-2.93.66-3.89-1.58c-.75-1.78-.49-2-.49-2a2.69,2.69,0,0,1,3.51.45A3.57,3.57,0,0,1,140,150.07Z"/><path class="cls-8" d="M135.85,146.45s1.56,1.37.69,2.67-.26,1.8-.42,2.58a.86.86,0,0,1-.46-.53c-.08-.37-.2-1.29-.69-1.16s-.94.74,0,1.51a1.92,1.92,0,0,1-.15,1.89s-2.51-2.16-1.78-4.58A3,3,0,0,1,135.85,146.45Z"/><path class="cls-16" d="M137.81,155.81s.2,1.52-.35,1.8S135,155,135,155a25.8,25.8,0,0,0-3.25,1.6c-.6.49.27,5.15.27,5.15s-1.84,5.6-1.61,6.79,8.29-.23,8.29-.23.78-5.71,1.08-6.56a3.19,3.19,0,0,0,.3-2.58l-.69-2.19A8.38,8.38,0,0,0,137.81,155.81Z"/><path class="cls-15" d="M133,160.88c-.61-.81-.24-2.17-.88-3-.19-.26-.39-.5-.59-.74a23.77,23.77,0,0,0,.45,4.62s-1.84,5.6-1.61,6.79,8.29-.23,8.29-.23.69-5,1-6.35c-.2.31-1.84,2.3-3.63,2C135.06,163.84,134.23,162.52,133,160.88Z"/><path class="cls-8" d="M134.43,150.59a.74.74,0,0,0,.48.77c.21.06.19.74.37,1.42.33,1.3.12,2.19-.85,2.57a10.34,10.34,0,0,0-2.8,1.27c-1.12.78-.4-2.49,1-3.32A4.44,4.44,0,0,0,134.43,150.59Z"/><path class="cls-8" d="M159.82,167.65h-5.89a.47.47,0,0,1-.42-.69l.34-.69a.48.48,0,0,1,.43-.26h5.19a.48.48,0,0,1,.43.26l.34.69A.47.47,0,0,1,159.82,167.65Z"/><rect class="cls-19" x="117.24" y="167.65" width="51.57" height="1.38"/><rect class="cls-19" x="119.15" y="168.24" width="0.6" height="28.42"/><rect class="cls-19" x="166.3" y="168.24" width="0.6" height="28.42"/><path class="cls-16" d="M140.15,165.36l-.15,1.73s-10.24.11-11.79-.09-2.24-2.24-1.24-4,4-6.45,5.25-6.55,2.05,1.67,1,3.59-3,3.76-2.6,4.09S140.15,165.36,140.15,165.36Z"/><polygon class="cls-18" points="257.17 158.73 258.35 175.72 271.33 176.53 270.97 159.19 257.17 158.73"/><path class="cls-18" d="M270.13,158.29c-1.05-.32-3.44,9.15-3.07,10.67.25,1,9.08.66,9.08.66l.1-1.81s-5.6-.64-5.58-1.1a28.82,28.82,0,0,1,1.66-3.48S271.19,158.61,270.13,158.29Z"/><path class="cls-10" d="M266,152.71l-2.38.37a5.43,5.43,0,0,1-.36,3.92s1.71,1.85,2.9,1.36a1.4,1.4,0,0,0,.8-1.81S265.65,155.52,266,152.71Z"/><path class="cls-9" d="M263.21,149.06s3.71-.42,4,.2.31,2.38.55,2.75.67.81.51,1.05-.34.18-.44.45-.07,1.79-.56,2-3,.09-3.89-1.33S261.42,149.19,263.21,149.06Z"/><path class="cls-8" d="M262.28,149.41l2.46,1.14a5.46,5.46,0,0,0,.63,2.68s-.22.34-.45.15a.93.93,0,0,1-.44-.65c-.05-.36-.27-1.32-.91-.85s0,1,.36,1.18c0,0,.52,1.86-.47,1.73a5.58,5.58,0,0,1-1.7-2.82C261,149.73,261.67,149,262.28,149.41Z"/><path class="cls-8" d="M268.25,148.59s.88,1.27-1.16,2.11-5-1.38-5-1.38.08-1.11,1.71-1.58c1.22-.36,2.36-.31,3,.4C267.85,149.34,268.25,148.59,268.25,148.59Z"/><rect class="cls-18" x="259.47" y="177.44" width="0.71" height="18.68"/><rect class="cls-18" x="272.6" y="177.44" width="0.71" height="18.68"/><rect class="cls-8" x="257.57" y="175.72" width="17.64" height="2.44"/><path class="cls-18" d="M263.5,156.38s-3.32.92-3.46,1,.37,4.8.31,6.09-.57,6.83-.57,6.83h10.31s-.12-5.63-.07-6.87c0,0-.33-4.18.11-5.14a27.05,27.05,0,0,0-3.19-1.74s0,1.36-.7,1.73S263.5,156.38,263.5,156.38Z"/><path class="cls-20" d="M270,163.43s0-.57,0-1.35a13.36,13.36,0,0,1-.75,2c-.67,1.39-2.33,3.31-4.1,3.1a4.58,4.58,0,0,1-3.64-3.5c-.34-1.3-.17-2.72-.61-4a5.46,5.46,0,0,0-.78-1.43c.1,1.46.28,4.25.24,5.18-.05,1.3-.57,6.83-.57,6.83h10.31S270,164.67,270,163.43Z"/><path class="cls-8" d="M269.89,169.31l-2.34-4s-.56-.33-.56.36l2.7,3.77S270.32,170.24,269.89,169.31Z"/><path class="cls-9" d="M269,168.3a2.35,2.35,0,0,0-.78-.87c-.38-.2-2.1.5-2.22.53a5.44,5.44,0,0,1-1.37.27,11.71,11.71,0,0,1-.23,1.18,6.17,6.17,0,0,0,1.85-.12,1.22,1.22,0,0,1,.89.25c.27.19.53.35.72.31s0-.27-.12-.4h0c.48.58.73.49.82.37s-.52-.7-.58-.77-.6-.49-.6-.49a2.39,2.39,0,0,1,.69.48c.06.06.71,1,.93.74s-.32-.8-.54-1.11a2.41,2.41,0,0,0-.71-.58c.26,0,.71.46.86.63s.54,1,.85.79S269.15,168.55,269,168.3Zm-1.31,1.1a4.85,4.85,0,0,0-.51-.38A2.59,2.59,0,0,1,267.66,169.4Z"/><path class="cls-9" d="M268.89,167.6s.63.25.75.53-.07.46-.22.39Z"/><path class="cls-18" d="M260,157.38a6,6,0,0,0-1.6,1.73c-.51,1-3.32,8.33-2.95,9.85.26,1,9.09.66,9.09.66l.09-1.81s-5.6-.64-5.57-1.1a28.82,28.82,0,0,1,1.66-3.48S261.64,159.5,260,157.38Z"/><path class="cls-8" d="M274.3,193.13s3,.8,4.18,1.19c1,.32.89,1.24-.2,1.66a2.33,2.33,0,0,1-2.31,0c-.28-.34-.9-.15-1.13,0s-2.34-.15-2.48-.58a9.6,9.6,0,0,1,.06-2.11Z"/><path class="cls-8" d="M269.53,193.33s2.88,1,4.06,1.53c1,.41.78,1.31-.34,1.64a2.34,2.34,0,0,1-2.3-.24c-.25-.36-.88-.23-1.12-.11s-2.32-.35-2.43-.79a11.83,11.83,0,0,1,.45-2.47Z"/><path class="cls-6" d="M276,176.08c-.32-1.21-6.34-4.86-6.84-6h-4.86a7.92,7.92,0,0,0-1.29,3.72c-.31,3.09,2.55,2,5.38,2.13s4,1.85,4.05,2.62-.43,14.79-.43,14.79l3.84,0S276.17,176.8,276,176.08Z"/><path class="cls-7" d="M273.24,193.37s1.27-16.75,1-17.18c-.88-1.33-5.15-4.47-6.61-5.92l-3.35-.15a7.92,7.92,0,0,0-1.29,3.72c-.31,3.09,2.55,2,5.38,2.13s4,1.85,4.05,2.62-.43,14.79-.43,14.79Z"/><path class="cls-6" d="M273.52,176.48c-.23-1.07-6.51-4.78-7.83-6.21l-5.15-.35a4.65,4.65,0,0,0-1.25,3c0,3,2.26,3.69,5.09,3.77,3.27.1,4.95.52,4.94,1.29s-2,15.36-2,15.36l3.81.19S273.67,177.21,273.52,176.48Z"/><path class="cls-9" d="M300.77,153.2a24,24,0,0,0,1.19-2.26c.32-.79,1.58-3.54,2-3.25s-.73,2.59-.73,2.59,1-2.88,1.54-2.72-.93,2.84-.93,2.84,1.21-2.53,1.53-2.28.07.8-1,2.68c0,0,.88-1.61,1.22-1.23s-.75,1.85-1.14,2.2a26.28,26.28,0,0,0-2.69,2.44S300.79,153.86,300.77,153.2Z"/><path class="cls-21" d="M302.55,151.31s1.33-.76,1.7-.47,0,.6-1.38,1c0,0-.49.61-.8.66A.92.92,0,0,1,302.55,151.31Z"/><path class="cls-9" d="M275,151.93a6.06,6.06,0,0,1-.51-1.32c0-.3.15-.62.16-1s.56-1.35.44-1.62-.45-.2-.77.44-.22,1-.48.86a7.22,7.22,0,0,1-1.09-1.31c-.2-.33-.85-1-1-.88s-.22.28.92,1.89c0,0-1.29-1.94-1.67-1.59s1,1.66,1.18,1.89c0,0-1.17-1.47-1.52-1.12s1.28,1.54,1.28,1.54-1.2-.94-1.36-.67.54.9,1.22,1.29.87.48,1,.74a12.27,12.27,0,0,1,.6,1.29S274.5,152.6,275,151.93Z"/><path class="cls-10" d="M289.43,145.31l-2.44.37s-.14,4.56-2.07,4.92c0,0-.69,7.47,1.86,6.85s3.93-7.11,3.93-7.11S288.46,149.72,289.43,145.31Z"/><path class="cls-9" d="M289.62,141.91s-2.64-1.09-3.68-.43-1,2.93-1.12,4c-.24,1.63.46,3.22.89,3.37s3.72-.73,4.24-3.12S290.24,142.31,289.62,141.91Z"/><path class="cls-8" d="M285.62,191.62a8.67,8.67,0,0,1,.09,2.7c-.28.54-5.83.28-6.16-.08s.22-1,.51-1.14,3.31-1.47,3.31-1.47Z"/><path class="cls-8" d="M292.8,191.62h-1.94a10,10,0,0,0,0,2c.13.37,2,2.63,2.9,2.63.52,0,1.15,0,1.25-.46a2.9,2.9,0,0,0-.6-1.62C293.72,193.21,292.8,191.62,292.8,191.62Z"/><path class="cls-8" d="M289.14,146.05a5,5,0,0,1-1.55.56c-.61,0-1-.68-1.84-.49l-1,.22s-.46,3.08.7,3a7.58,7.58,0,0,0,3.84-2.13,1.51,1.51,0,0,0,1.19-.72,6.53,6.53,0,0,0,.68-4.25c-.4-1.34-2.21-1.86-3-1.24a2.51,2.51,0,0,0-1.67-.42c-1.1.06-1.32.64-1.79,1s-.92.35-1.07.05c0,0-.33.55.26,1.5s1.27.8,2.19.59a6.64,6.64,0,0,0,2.06-1.12,6.34,6.34,0,0,0,.43,2.59s.18.08.24,0,0-1.06.56-.84S289.62,145.68,289.14,146.05Z"/><path class="cls-4" d="M285.54,147A2.83,2.83,0,0,0,287,147s-.42.57-.9.49A.62.62,0,0,1,285.54,147Z"/><path class="cls-4" d="M290,149.66l-2.26,1.22-1.76-1a16.14,16.14,0,0,0-.64,5.73c.26,3.05.75,5.23,2.81,2.4S291,150.64,290,149.66Z"/><path class="cls-4" d="M290,149.66l-2.26,1.22-1.76-1a16.14,16.14,0,0,0-.64,5.73c.26,3.05.75,5.23,2.81,2.4S291,150.64,290,149.66Z"/><path class="cls-8" d="M287.29,152.28s-1.21,6.56-1.11,6.69c.07-.08.81,1.78,1.23,0,.34-1.39.38-6.54.43-6.61s.63-.68,1-1,.48-.45.71-.68c.06-.11.11-.22.16-.33l-.09.23a5.46,5.46,0,0,1,.47-.77.76.76,0,0,0-.11-.14l-2.26,1.22-1.76-1s0,.15-.13.43a7.7,7.7,0,0,1,.5.77A15.41,15.41,0,0,0,287.29,152.28Z"/><path class="cls-8" d="M282.66,161.88l6.93-.13s1.06,1.73,1.29,6.72c.16,3.41.3,4.36.64,8.87.23,3.07,1.32,14.81,1.32,14.81h-3.68s-1.56-13.4-1.64-14.13c0-.26-.94-7.34-.94-7.34s.15,6.41.15,7.16.16,13.93.16,13.93H283s-.44-11.21-.48-13.78C282.47,173.84,282.12,163.22,282.66,161.88Z"/><path class="cls-12" d="M286,149.83s-2.44.47-3.38.78c0,0,.3,5.64-.65,7l-.43,12.27s5.35-.06,5.52-6.71.16-6.95.16-6.95Z"/><path class="cls-8" d="M286.72,157a.22.22,0,0,1-.21.21.2.2,0,0,1-.2-.21.19.19,0,0,1,.2-.2A.2.2,0,0,1,286.72,157Z"/><path class="cls-8" d="M286.59,159.05a.22.22,0,0,1-.21.2.2.2,0,0,1-.2-.21.2.2,0,0,1,.2-.2A.21.21,0,0,1,286.59,159.05Z"/><path class="cls-8" d="M286.45,161.06a.2.2,0,0,1-.2.21.21.21,0,1,1,0-.42A.2.2,0,0,1,286.45,161.06Z"/><path class="cls-8" d="M286.32,163.08a.2.2,0,0,1-.21.2.21.21,0,0,1-.2-.21.22.22,0,0,1,.21-.2A.2.2,0,0,1,286.32,163.08Z"/><path class="cls-12" d="M293.31,151.22,290,149.66l-2.8,6.61-.59,7.72s.06,6.78,5.86,5.94L292,157.48S291.93,152.92,293.31,151.22Z"/><path class="cls-12" d="M302.62,154l-2-1.46s-3.73,5.9-4,5.72-2-6.38-3.34-7a3.45,3.45,0,0,0-1.08,1.91,16.53,16.53,0,0,0-.25,4.25s3.51,5.22,4.76,5S302.62,154,302.62,154Z"/><path class="cls-12" d="M275.08,151.22l-2.28.91s3.13,11.29,4.93,10.3,4.19-4.51,4.19-4.51a8.37,8.37,0,0,0,.93-2.81,10.88,10.88,0,0,0-.27-4.5,9.15,9.15,0,0,0-2.92,3.62c-1.33,2.66-1.74,3.42-1.86,3.25S275.08,151.22,275.08,151.22Z"/><path class="cls-22" d="M285.85,150.2c0,.06.59,2.18.59,2.18l1.28-1,1.08,1L290,150l-.19-.23-1.37.73-.67.61L286.23,150l-.09,0Z"/><polygon class="cls-4" points="287.72 150.71 286.15 149.51 285.77 149.86 286.38 152.01 287.72 151.01 288.93 152.14 290.09 149.71 289.51 149.1 287.72 150.71"/><rect class="cls-23" x="270.98" y="169.05" width="11.76" height="0.72"/><rect class="cls-8" x="270.13" y="159.7" width="13.46" height="9.72" rx="0.7"/><path class="cls-24" d="M270.51,168.71V160.4a.7.7,0,0,1,.7-.7h-.62a.7.7,0,0,0-.7.7v8.31a.7.7,0,0,0,.7.7h.62A.7.7,0,0,1,270.51,168.71Z"/><path class="cls-4" d="M277.54,164.55a.68.68,0,1,1-.68-.67A.68.68,0,0,1,277.54,164.55Z"/><rect class="cls-8" x="290.16" y="168.5" width="8.86" height="1.27"/><polygon class="cls-8" points="287.77 160.28 290.64 169.18 291.09 169.02 288.22 160.12 287.77 160.28"/><path class="cls-8" d="M303.64,191.43s-2.36,1.16-3.62,1.68c-1,.44-.83,1.39.36,1.75a2.47,2.47,0,0,0,2.45-.26c.27-.38.94-.24,1.19-.12s2.25-.33,2.36-.8a11.7,11.7,0,0,0-.38-2.49Z"/><path class="cls-12" d="M315.93,169.53l-4,.06s-9.8,3.65-11.08,4.61S303,191.9,303,191.9l3.32-.35s-.78-15-.14-15.61,11-1.59,11.67-1.79S317.53,171.66,315.93,169.53Z"/><path class="cls-13" d="M315.93,169.53l-4,.06s-9.8,3.65-11.08,4.61S303,191.9,303,191.9l3.32-.35s-.78-15-.14-15.61,11-1.59,11.67-1.79S317.53,171.66,315.93,169.53Z"/><polygon class="cls-18" points="324.06 160.6 319.99 176.87 318.31 176.45 321.81 160.04 324.06 160.6"/><rect class="cls-18" x="305.49" y="177.34" width="0.67" height="17.76"/><rect class="cls-18" x="317.97" y="177.34" width="0.67" height="17.76"/><rect class="cls-8" x="303.68" y="175.71" width="16.77" height="2.32"/><path class="cls-10" d="M314.86,152.47l-2.3.49s.67,2.83,0,4.39c0,0,1.26.49,3.37-1.11C315.93,156.24,314.63,155.14,314.86,152.47Z"/><path class="cls-9" d="M315.24,149.19s-2.56-1-3.24-.62-1.52.88-1.39,1.4a7.44,7.44,0,0,1,.06,2.53c-.17.48-.46.82-.39,1s.48,0,.59.24a6.72,6.72,0,0,0,1.05,1.75c.35.2,2.33-.5,3.25-2.66S315.81,149.55,315.24,149.19Z"/><path class="cls-8" d="M300.77,191.68s-3.08,1.08-4.35,1.59c-1.05.42-.84,1.38.35,1.75a2.5,2.5,0,0,0,2.45-.23c.27-.38.94-.23,1.19-.11s2.25-.31,2.37-.78a6.92,6.92,0,0,0-.17-1.8Z"/><path class="cls-8" d="M313.73,148.42a1.57,1.57,0,0,1,1.86-.41c1,.57.6,1.48.81,1.88a2.46,2.46,0,0,1-.08,2.55c-.54.95-.22,1.56-1.1,1.66s-1.16-.16-1.16-.16a3.42,3.42,0,0,0,.35-1.39s.76-.43.66-1.08a.57.57,0,0,0-1.13-.07c-.21.68.17,1.14-.33,1.47,0,0-.3.08-.3-.67a7.11,7.11,0,0,1,.14-1.38,3.39,3.39,0,0,1-3.18,0c-1.38-1-.43-2.46.58-2.8A3.31,3.31,0,0,1,313.73,148.42Z"/><path class="cls-12" d="M317,168.94l-4.48.89s-10.16,3.67-11.44,4.63-1.51,17.44-1.51,17.44l3.34.32s1.42-15.66,2.21-16.12,11.61-.39,12.29-.39C318.44,175.71,319.28,171.21,317,168.94Z"/><path class="cls-9" d="M298.47,167.78s-.68.08-.82.08-2-1.12-2.2-1-2.11,1.51-2.05,1.78.58.12,1.6-.76c0,0-1.35,1-1.1,1.22s1.44-.86,1.44-.86-1.22.93-.93,1.15,1.35-.9,1.35-.9-.84.83-.72,1,.64-.09,1.22-.64c0,0,.1-.06.41.11a8.43,8.43,0,0,0,2.18-.13Z"/><path class="cls-6" d="M298,167.23l.57,2.15s9.26-2.1,10.19-2.79,6.55-6.77,5.72-8.46-1.88-1.27-2.56-.31-3.87,5.06-4.32,5.54S298,167.23,298,167.23Z"/><path class="cls-9" d="M299.51,168.78s-.71.08-.86.08-2.09-1.12-2.31-1-2.21,1.51-2.15,1.78.61.11,1.68-.76c0,0-1.42,1-1.15,1.22s1.5-.86,1.5-.86-1.27.93-1,1.14,1.42-.89,1.42-.89-.88.83-.76,1,.67-.09,1.28-.65c0,0,.11-.05.43.12a9.27,9.27,0,0,0,2.29-.13Z"/><path class="cls-6" d="M315.76,156.08a8.94,8.94,0,0,1-3.24,1,35,35,0,0,0-2,5.06c-.13,1.06.22,8,.22,8s4.59,1,7.3-.37a33.61,33.61,0,0,1-.44-6.81C317.87,160.71,317.64,157.75,315.76,156.08Z"/><path class="cls-7" d="M314.87,163.49c.46-1.06,2.26-2.76,1.35-4-.72-.95-1.24-1-2-.11A28.76,28.76,0,0,1,311.9,162a16.56,16.56,0,0,1-1.44,1c0,2.19.25,7.14.25,7.14a18.4,18.4,0,0,0,3.27.34C313,168.41,313.91,165.71,314.87,163.49Z"/><path class="cls-6" d="M299,168.23l.6,2.15s9.72-2.1,10.71-2.79,6.87-6.77,6-8.46-2-1.27-2.69-.31-4.07,5.06-4.55,5.54S299,168.23,299,168.23Z"/><rect class="cls-8" x="255.31" y="168.5" width="8.86" height="1.27"/><polygon class="cls-8" points="266.56 160.28 263.69 169.18 263.24 169.02 266.11 160.12 266.56 160.28"/><rect class="cls-19" x="251.26" y="169.77" width="0.59" height="26.03"/><rect class="cls-19" x="309.78" y="169.77" width="0.59" height="26.03"/><rect class="cls-19" x="251.26" y="169.77" width="59.11" height="0.69"/><path class="cls-9" d="M254.25,168.06s.77-.05.92-.08,2-1.6,2.26-1.49,2.64,1.17,2.64,1.47-.63.24-1.93-.48c0,0,1.69.76,1.45,1.07s-1.76-.61-1.76-.61,1.53.73,1.26,1-1.69-.67-1.69-.67,1.1.71,1,.88-.73,0-1.48-.44c0,0-.13,0-.44.21a9.61,9.61,0,0,1-2.45.31Z"/><path class="cls-8" d="M365.93,158s-4.43-.33-5.8-2.61a3.11,3.11,0,0,1,1.12-4.56c1.14-.72,2.8-1.84,2.86-2.88s0-3.58,2.66-4.43a4,4,0,0,1,2.78.15,3.25,3.25,0,0,1,1.1.88,2.3,2.3,0,0,1,.49,1.14,4.2,4.2,0,0,1,.06,1.12c0,.61-.15,1.23-.2,1.83s-.09,1-.09,1.56a3,3,0,0,0,.19,1c.11.34.3.65.42,1s.4,1,.49,1.32a3.64,3.64,0,0,1,0,1.47,3.21,3.21,0,0,1-2.59,2.76A10.37,10.37,0,0,1,365.93,158Z"/><path class="cls-10" d="M369.11,149.58a2.55,2.55,0,0,1-1.8-1,4.44,4.44,0,0,1-.8,3.24s0,2.95,1.89,2.66,1.67-2.49,1.67-2.49A2.59,2.59,0,0,1,369.11,149.58Z"/><path class="cls-9" d="M367.11,144.89s1.81-.76,2.49-.38,1,1.43,1.2,2.47-.31,3.06-1.31,3.39c-1.18.39-2.21-.58-2.6-1.81a1.44,1.44,0,0,1-.95-1.63C366,145.54,366.37,144.76,367.11,144.89Z"/><path class="cls-6" d="M369.69,151.6a7.59,7.59,0,0,1-1.18,1.66c-.4.26-2.05-1.9-2.05-1.9a16.06,16.06,0,0,1-3.46,1.57s-.55,5.75-.9,7.07c0,0-.62,7.27-.62,8.25h9.76a22.13,22.13,0,0,1,1.68-9.22s-.57-4.44-.26-5.54A33.45,33.45,0,0,1,369.69,151.6Z"/><path class="cls-7" d="M372.92,159s-.14-1.09-.25-2.32a41,41,0,0,0-1.59,4.13c-.63,1.65-2.48,4.79-4.75,4.08-1.78-.56-2.35-2.63-2.63-4.28-.16-.91-.3-1.83-.39-2.74a7,7,0,0,0-.52-2.62c-.25.21-.34.95-.37,1.27-.05.48-.06,1-.08,1.44,0,.25,0,.49,0,.74s-.06.41-.09.62,0,.3-.06.44v.06c0,.05,0,.11,0,.15s-.62,7.27-.62,8.25h9.76A22.13,22.13,0,0,1,372.92,159Z"/><polygon class="cls-4" points="366.56 151.25 365.5 151.88 367.12 154.53 368.51 153.38 369.84 154.45 370.49 152.11 369.55 151.42 368.55 153.1 366.56 151.25"/><path class="cls-8" d="M369.82,145.09a2.35,2.35,0,0,1-1.41,1.53,1,1,0,0,0-.69,1c0,.22-.49.25-.5.1s.12-.88-.51-1-.68.8-.12,1.37a2.42,2.42,0,0,1,.56,2.35,4.06,4.06,0,0,1-3.51,2.67c-2,.23-2.83,3-2.83,3s-2-2.35.22-4,3.79-2.68,3.77-3.8.72-4.15,2.62-4.35A2.13,2.13,0,0,1,369.82,145.09Z"/><path class="cls-8" d="M371.08,146.83s-.83.12-1.71-1.12a4.22,4.22,0,0,1-.89-2.23S371.68,144,371.08,146.83Z"/><rect class="cls-18" x="361.42" y="173.95" width="0.8" height="20.95"/><rect class="cls-18" x="376.15" y="173.95" width="0.8" height="20.95"/><rect class="cls-18" x="385.84" y="173.95" width="0.8" height="20.95"/><rect class="cls-18" x="400.56" y="173.95" width="0.8" height="20.95"/><rect class="cls-8" x="359.29" y="172.72" width="19.79" height="2.05"/><path class="cls-8" d="M372.19,186.56a14.09,14.09,0,0,0-1.76,2.24c0,.25,4.15,5.65,4.75,5.6s.62-1.08.48-1.45-1.9-5.78-1.9-5.78Z"/><path class="cls-8" d="M367.1,186.62a14.5,14.5,0,0,0-2,2.07c0,.26,3.64,6,4.24,6s.71-1,.6-1.4-1.38-5.93-1.38-5.93Z"/><path class="cls-10" d="M375.08,174.19c-.7,3.31-3.06,12.55-3.06,12.55l2.09,1.25a145,145,0,0,0,4.7-13.8Z"/><path class="cls-9" d="M370.89,174.19c-1,3.38-4,12.63-4,12.63l1.86,1.26s4.94-9.17,6.76-13.89Z"/><path class="cls-12" d="M378.23,170.81a19.82,19.82,0,0,0-4.79-2.1h0a4.38,4.38,0,0,1-2.06-3.09A10.6,10.6,0,0,1,368,166a21,21,0,0,1-5.2-.08,4.51,4.51,0,0,1-1-.39,6.58,6.58,0,0,0-1.8,4.62c0,1.5.43,2.17,2.07,2.7.89.29,5.54-.14,6.83.4s.95,1.69.75,2.54c5.47.78,8.31.25,9.32,0C379.26,174.75,380,171.8,378.23,170.81Z"/><path class="cls-8" d="M393.29,165.58s-4.65,0-6.29-1.11-1.92-5.43.45-7.2,2.87-2.32,3-3.49.08-3.81,3.15-3.83,2.76,2.46,3,4c.16,1.09,1.66,2.71,3,3.72C401.25,159,403.14,166.67,393.29,165.58Z"/><path class="cls-10" d="M394.67,154.57a2.66,2.66,0,0,1-.82.13,2.49,2.49,0,0,1-1.38-.39c-.13.87.27,1.9-.59,2.14,0,0,.05,3.76,1.57,3.76s1.72-3.78,1.72-3.78S394.47,156.29,394.67,154.57Z"/><path class="cls-9" d="M395.63,153.63c-.15-.33-.55-.17-.55-.17.08-.91.08-2.35.08-2.35l-1.59-.17-1.58.17s0,1.44.08,2.35c0,0-.4-.16-.56.17-.26.58.38,1,.38,1s.44,1.93,1.68,2c1.25-.11,1.71-2.05,1.69-2S395.9,154.21,395.63,153.63Z"/><path class="cls-8" d="M395.38,151.09a3.2,3.2,0,0,1-3.12,2,1.38,1.38,0,0,1-.06.72s-.31-.9-.67-.7a1.23,1.23,0,0,0-.49.54s-.33-2.54,1.32-3.11A3.39,3.39,0,0,1,395.38,151.09Z"/><path class="cls-8" d="M394.65,150.89a2.19,2.19,0,0,0,0,.36c0,.25,0,.5,0,.75a1.8,1.8,0,0,1,.41,1.17,1.37,1.37,0,0,0,.08.62s.31-.9.67-.7a1.23,1.23,0,0,1,.49.54S396.15,150.84,394.65,150.89Z"/><path class="cls-18" d="M398,162.44a19.28,19.28,0,0,1-.22-4.9c-.57-.17-2.78-1.21-2.78-1.21l-1.43,3.46-1.51-3.44s-1.79.86-2.35,1a26.87,26.87,0,0,1-.57,5.05s1.4,2.29,0,7.41H398C396.6,164.73,398,162.44,398,162.44Z"/><path class="cls-20" d="M398,162.44a15.46,15.46,0,0,1-.19-2.06c-.21.57-.46,1.8-.68,2.36-.73,1.89-1.51,2.67-3.62,2.7-1.69,0-3.27-2.7-3.45-3.2s-.45-1.14-.67-1.71a7.43,7.43,0,0,1-.25,1.91s1.4,2.29,0,7.41H398C396.6,164.73,398,162.44,398,162.44Z"/><path class="cls-9" d="M397.67,166.21s-.75.39-1,.32a1,1,0,0,0-.88-.07,3.53,3.53,0,0,0-1,.42c-.26.16-.76.41-.6.71s.7-.1.75-.12l.23-.11s-.62.29-.51.47.42.17.62.06a3.33,3.33,0,0,0,.37-.24s-.41.29-.34.39a.58.58,0,0,0,.6,0,1.27,1.27,0,0,0,.33-.25s-.37.26,0,.37.63-.23.81-.36.44-.42.53-.48.89-.33.89-.33Z"/><path class="cls-8" d="M394.23,167.68l-2.18-3.57s-.65-.34-.62.43l2.58,3.33S394.76,168.71,394.23,167.68Z"/><path class="cls-9" d="M389.36,166.22a4.27,4.27,0,0,0,.88.4c.12,0,1.73-1,2.08-.81a2.15,2.15,0,0,1,.73.78c.16.22.71.89.45,1.11s-.64-.53-.78-.68-.56-.6-.79-.55a2.15,2.15,0,0,1,.66.51c.2.28.7.71.52,1s-.8-.58-.86-.63a2,2,0,0,0-.64-.42s.51.37.56.43.66.53.55.69-.29.23-.75-.29a2.22,2.22,0,0,0-.54-.38,3.63,3.63,0,0,1,.51.35c.1.11.32.35.15.4a1,1,0,0,1-.68-.24,1,1,0,0,0-.85-.17,7.38,7.38,0,0,1-1.72-.43Z"/><path class="cls-9" d="M393.13,165.88s.61.2.72.46-.08.41-.22.35Z"/><path class="cls-18" d="M389.71,157.39c-.51.13-1.74.6-2.9,3.72a17.65,17.65,0,0,0-1.37,5.87c.16,1.18,4.75,1.14,4.75,1.14l.31-1.83s-2.06-.67-2-.92.65-1.6.89-2.36C389.42,162.87,390.06,157.29,389.71,157.39Z"/><path class="cls-18" d="M397.67,157.53c.37.05,1.71.67,2.9,3.58a15.18,15.18,0,0,1,1.37,5.87c-.16,1.18-4.76,1.14-4.76,1.14l-.3-1.83s2.06-.67,2-.92-.65-1.6-.89-2.36C398,162.87,397.31,157.47,397.67,157.53Z"/><path class="cls-9" d="M383.31,165.37l-.59,1a8.74,8.74,0,0,1,1,.69,2.2,2.2,0,0,0,1.38,1.08c.92.18,1.06.36,1.3.12s-.38-.56-.75-.64-.66-.15-.61-.23.38-.09,1,0,1.5.4,1.7.27-.5-.7-1.28-.78a8.57,8.57,0,0,1-.85-.13,8.64,8.64,0,0,1,.92.09c.19,0,1.28.36,1.54.15s-.72-.57-1.4-.65a3,3,0,0,0-.9,0,8.79,8.79,0,0,1,1,0c.24,0,.95.23,1,.05s-.52-.44-1.05-.45a5.25,5.25,0,0,0-1,.06,5.51,5.51,0,0,1,1-.13c.26,0,.65.07.68,0s-.15-.35-1-.34a7.31,7.31,0,0,0-1.2.17A8.68,8.68,0,0,1,383.31,165.37Z"/><rect class="cls-19" x="353.29" y="167.99" width="0.61" height="27.07"/><rect class="cls-19" x="406.53" y="167.99" width="0.61" height="27.07"/><rect class="cls-19" x="352.25" y="167.99" width="55.93" height="0.72"/><path class="cls-25" d="M399.31,174.3c0-.09,0-.17,0-.25a7.37,7.37,0,0,0-1.36-4.29h-8.87a8,8,0,0,0-1.21,4.29v.25Z"/><path class="cls-8" d="M391,187a40.78,40.78,0,0,0-2.51,3.24c-.26.57.38,1.28,1.26,1s3.45-3.23,3.33-3.6a2.18,2.18,0,0,0-.7-.76Z"/><rect class="cls-8" x="383.74" y="172.72" width="19.55" height="2.05"/><path class="cls-9" d="M393.31,173.8c-.08-1,.11-2.93-1.6-2.93-2.59,0-2.06,3.72-2,4.13.41,4.13,1.33,12,1.33,12l1.38-.17S393.35,174.26,393.31,173.8Z"/><path class="cls-8" d="M396.18,187a38.75,38.75,0,0,1,2.5,3.24c.26.57-.38,1.28-1.25,1s-3.45-3.23-3.34-3.6a2.18,2.18,0,0,1,.7-.76Z"/><path class="cls-9" d="M393.88,173.8c.09-1-.1-2.93,1.61-2.93,2.59,0,2.06,3.72,2,4.13-.41,4.13-1.33,12-1.33,12l-1.39-.17S393.84,174.26,393.88,173.8Z"/><path class="cls-6" d="M383.84,165l-.58,2.14s-7.56-1.36-8.27-2.4a58.25,58.25,0,0,1-2.5-5.56s-1-3.42.17-5.67a3.51,3.51,0,0,1,1.76,2.16c.42,1.13,2.43,5.95,2.82,6.45S383.84,165,383.84,165Z"/><path class="cls-9" d="M363.38,166.6s.67.1.81.1,2-1,2.21-.83,2,1.51,2,1.76-.58.09-1.55-.78c0,0,1.3,1,1,1.19s-1.38-.86-1.38-.86,1.16.92.88,1.11-1.31-.9-1.31-.9.8.82.68,1-.63-.11-1.18-.66c0,0-.11-.06-.41.1a8.56,8.56,0,0,1-2.15-.22Z"/><path class="cls-6" d="M364,166.64l-.6,1.35s-5.7-2.47-5.91-4.76,3.32-10.08,5.75-10c0,0-.44,5.21-1.09,6.6a11.88,11.88,0,0,0-1.36,2.71C360.81,163.05,364,166.64,364,166.64Z"/><path class="cls-10" d="M198,151h-2.57s-.37,3.5-1,3.92c0,0-.83,4.13,2.32,4.13,3.82,0,2.33-4.13,2.33-4.13C198.35,154.5,198,151,198,151Z"/><path class="cls-9" d="M200,151.69c-.36-.41-.79.21-.79.21s.59-2.32,0-3.33-2.49-.48-2.49-.48-1.91-.54-2.5.48,0,3.33,0,3.33-.42-.62-.78-.21.59,1.44.8,1.56c0,0,1.37,2.57,2.48,2.57s2.47-2.57,2.47-2.57C199.45,153.13,200.39,152.09,200,151.69Z"/><path class="cls-8" d="M196.28,149s-1.44.26-1.6,1a3,3,0,0,0,.07,1.16,7.55,7.55,0,0,1,.13,1.27.21.21,0,0,1-.19,0,2.34,2.34,0,0,1-.49-.59c-.27-.4-.67-.33-.78-.08,0,0-.32-3.8,1.27-3.93S196.28,149,196.28,149Z"/><path class="cls-8" d="M197.22,149s1.44.26,1.6,1a3,3,0,0,1-.08,1.16,8.56,8.56,0,0,0-.12,1.27.21.21,0,0,0,.19,0,2.57,2.57,0,0,0,.49-.59c.27-.4.66-.33.78-.08,0,0,.32-3.8-1.27-3.93S197.22,149,197.22,149Z"/><path class="cls-8" d="M199.34,148.05a1.17,1.17,0,0,0-.68-1,3.85,3.85,0,0,0-3.25,0c-1.12.56-1.46.69-1.79.5s-.12-.37-.12-.37-.73,0-.7,1.13a3.21,3.21,0,0,0,3.27,2.56C198.87,150.86,199.77,148.9,199.34,148.05Z"/><path class="cls-18" d="M199,154.92c-.14,3.52-2.33,3.15-2.33,3.15s-2.19.37-2.32-3.15a23.65,23.65,0,0,0-5.21,2.11,33.29,33.29,0,0,1,.77,6.48l2,7.75,4.76.23,4.76-.23,2-7.75a34.22,34.22,0,0,1,.77-6.48A23.45,23.45,0,0,0,199,154.92Z"/><path class="cls-20" d="M203.11,159.06c-2.18,1.16-3.24,3.83-5.35,5.13s-3.73-1.38-4.79-2.8a8.28,8.28,0,0,0-3.5-2.78,33.1,33.1,0,0,1,.46,4.9l2,7.75,4.76.23,4.76-.23,2-7.75a32.46,32.46,0,0,1,.46-4.83C203.63,158.8,203.36,158.93,203.11,159.06Z"/><path class="cls-6" d="M205.52,174.4c0-2.72-3.38-4.51-3.38-4.51H190.81s-3.37,1.79-3.37,4.51a13.5,13.5,0,0,0,.27,2.1h3.77c-.16.27-.3.53-.41.75l-.1.18h2.74c.2,0,.59.09.54-.21s-.36-.68-.09-1.14a1.57,1.57,0,0,1,1.16-.65h2.05a3,3,0,0,1,.66.11c.19,0,.44,0,.55.22a2.82,2.82,0,0,1,.19.86,4,4,0,0,1-.06.81h3.84c-.26-.33-.47-.64-.66-.93h3.35A13.82,13.82,0,0,0,205.52,174.4Z"/><path class="cls-7" d="M205.52,174.4c0-2.72-3.38-4.51-3.38-4.51H190.81s-3.37,1.79-3.37,4.51a13.5,13.5,0,0,0,.27,2.1h3.77c-.16.27-.3.53-.41.75l-.1.18h3.27c.09,0-.13-.47-.15-.51a.9.9,0,0,1-.06-.56,1.2,1.2,0,0,1,.38-.51,2.82,2.82,0,0,1,2-.45,3.53,3.53,0,0,1,1.93.31,1.16,1.16,0,0,1,.29.25c.4.49.19.93.13,1.47h3.84c-.26-.33-.47-.64-.66-.93h3.35A13.82,13.82,0,0,0,205.52,174.4Z"/><path class="cls-18" d="M189.16,157s-4.33,9.35-4,10.6c.08.31,5.34,3.49,7.82,3l1-.19S190.3,157,189.16,157Z"/><path class="cls-18" d="M204.22,157s4.32,9.35,4,10.6c-.08.31-5.34,3.49-7.82,3l-1-.19S203.08,157,204.22,157Z"/><path class="cls-20" d="M190.85,160.3a6.92,6.92,0,0,1-.17,1.37c-.38,1.69-1,3.45-.35,5.17a29.11,29.11,0,0,0,1.95,3.86,3.05,3.05,0,0,0,.69,0l1-.19S192.29,164.28,190.85,160.3Z"/><path class="cls-20" d="M201.85,170.61a6.14,6.14,0,0,0,.48-2.49c-.06-1.73-.07-3.45,0-5.18,0-.75,0-1.47.07-2.18-1.4,4-3,9.71-3,9.71l1,.19A4,4,0,0,0,201.85,170.61Z"/><path class="cls-8" d="M192.37,190.58a48.91,48.91,0,0,0-3.06,4c-.32.7.46,1.57,1.53,1.21s1.69-1.08,1.71-1.55.59-.71.84-.74,1.68-1.66,1.53-2.11-.86-.93-.86-.93Z"/><path class="cls-8" d="M200.58,190.58a48.7,48.7,0,0,1,3.07,4c.32.7-.47,1.57-1.54,1.21s-1.69-1.08-1.71-1.55-.59-.71-.84-.74-1.67-1.66-1.53-2.11.86-.93.86-.93Z"/><rect class="cls-18" x="185.79" y="176.96" width="0.89" height="18.88"/><rect class="cls-18" x="206.47" y="176.96" width="0.89" height="18.88"/><rect class="cls-8" x="184.03" y="175.43" width="24.49" height="2.42"/><path class="cls-6" d="M193.34,174.25c-.33-.77-.4-2.42-2.6-2.42-4.24,0-3.25,3.4-3.18,3.91.64,5.06,3.72,15.15,3.72,15.15h4.24s-1.54-12.37-1.78-14.28A13.49,13.49,0,0,0,193.34,174.25Z"/><path class="cls-6" d="M199.63,174.25c.33-.77.39-2.42,2.59-2.42,4.25,0,3.25,3.4,3.19,3.91-.65,5.06-3.72,15.15-3.72,15.15h-4.25s1.54-12.37,1.78-14.28A13.63,13.63,0,0,1,199.63,174.25Z"/><rect class="cls-8" x="190.46" y="170.58" width="12.47" height="0.74"/><path class="cls-8" d="M204.76,161.93H188.62a.75.75,0,0,0-.72,1c.15,1,2.19,7.77,2.6,7.77h12.39c.36,0,2.45-6.8,2.59-7.77A.75.75,0,0,0,204.76,161.93Z"/><path class="cls-4" d="M197.36,166.64a.67.67,0,0,1-.67.67.67.67,0,0,1,0-1.34A.67.67,0,0,1,197.36,166.64Z"/><polygon class="cls-15" points="76 175.24 76 176.17 86.46 176.17 86.46 178.57 76 178.57 76 179.5 98.31 179.5 98.31 175.24 76 175.24"/><path class="cls-6" d="M101,180.14h.67v-.64H78.23v2.94h23.45v-.64H101c-.23,0-.4-.39-.4-.83S100.78,180.16,101,180.14Z"/><rect class="cls-16" x="88.2" y="175.24" width="10.11" height="4.25"/><rect class="cls-7" x="78.23" y="179.5" width="12.94" height="2.94"/><path class="cls-26" d="M76,176.17h0c.32,0,.58.56.58,1.2s-.26,1.17-.58,1.2H87.24v-2.4Z"/><polygon class="cls-16" points="100.83 166.36 100.83 165.44 90.37 165.44 90.37 163.03 100.83 163.03 100.83 162.11 78.52 162.11 78.52 166.36 100.83 166.36"/><rect class="cls-15" x="78.52" y="162.11" width="10.11" height="4.25"/><path class="cls-26" d="M100.83,165.44h0c-.32,0-.58-.55-.58-1.2s.26-1.17.58-1.2H89.59v2.41Z"/><polygon class="cls-16" points="103.46 194.3 103.46 193.65 88.17 193.65 88.17 191.97 103.46 191.97 103.46 191.32 70.84 191.32 70.84 194.3 103.46 194.3"/><rect class="cls-15" x="70.84" y="191.32" width="14.78" height="2.98"/><path class="cls-26" d="M103.46,193.65h0a.84.84,0,1,1,0-1.68H87v1.68Z"/><polygon class="cls-27" points="72.59 182.44 72.59 183.36 83.8 183.36 83.8 185.77 72.59 185.77 72.59 186.69 96.5 186.69 96.5 182.44 72.59 182.44"/><rect class="cls-28" x="85.66" y="182.44" width="13.76" height="4.25"/><path class="cls-26" d="M72.59,183.36h0c.35,0,.62.56.62,1.2s-.27,1.17-.62,1.21H97.86v-2.41Z"/><path class="cls-26" d="M85.7,183.36H72.59c.35,0,.62.56.62,1.2s-.27,1.17-.62,1.21H85.7Z"/><polygon class="cls-27" points="73.83 170.99 73.83 171.91 83.12 171.91 83.12 174.32 73.83 174.32 73.83 175.24 93.64 175.24 93.64 170.99 73.83 170.99"/><rect class="cls-28" x="84.66" y="170.99" width="11.4" height="4.25"/><path class="cls-26" d="M73.83,171.91h0c.28,0,.51.55.51,1.2s-.23,1.17-.51,1.2H94.77v-2.41Z"/><path class="cls-26" d="M84.69,171.91H73.83c.28,0,.51.55.51,1.2s-.23,1.17-.51,1.2H84.69Z"/><polygon class="cls-18" points="102.09 191.32 102.09 190.32 89.43 190.32 89.43 187.69 102.09 187.69 102.09 186.69 76.68 186.69 76.68 191.32 102.09 191.32"/><rect class="cls-20" x="73.74" y="186.69" width="13.82" height="4.63"/><path class="cls-26" d="M102.09,190.32h0c-.35,0-.63-.6-.63-1.3s.28-1.28.63-1.31H75.31v2.62Z"/><path class="cls-26" d="M87.53,190.32h14.56c-.35,0-.63-.6-.63-1.3s.28-1.28.63-1.31H87.53Z"/><polygon class="cls-18" points="97.82 170.99 97.82 169.99 87.97 169.99 87.97 167.37 97.82 167.37 97.82 166.36 78.06 166.36 78.06 170.99 97.82 170.99"/><rect class="cls-20" x="75.77" y="166.36" width="10.75" height="4.63"/><path class="cls-26" d="M97.82,170h0c-.27,0-.49-.6-.49-1.3s.22-1.28.49-1.31H77V170Z"/><path class="cls-26" d="M86.49,170H97.82c-.27,0-.49-.6-.49-1.3s.22-1.28.49-1.31H86.49Z"/><rect class="cls-26" x="93.77" y="181.8" width="7.24"/><path class="cls-26" d="M100.61,181c0-.45.17-.81.4-.83H92v1.66h9C100.78,181.78,100.61,181.41,100.61,181Z"/><path class="cls-6" d="M98.49,158.6H99v-1H81.73v4.48H99v-1h-.5c-.16,0-.29-.58-.29-1.26S98.33,158.63,98.49,158.6Z"/><rect class="cls-7" x="81.73" y="157.63" width="9.53" height="4.48"/><path class="cls-26" d="M98.2,159.87c0-.68.13-1.24.29-1.27H91.86v2.53h6.63C98.33,161.1,98.2,160.55,98.2,159.87Z"/><path class="cls-4" d="M148.77,73.38v7.13h3.88v2h-6.28V73.38Z"/><path class="cls-4" d="M161,73.38v1.91h-4.84V77h4.37v1.9l-4.37,0v1.72h5v1.91h-7.37V73.38Z"/><path class="cls-4" d="M168.69,80.93h-4l-.64,1.62h-2.46l3.94-9.17H168l3.85,9.17h-2.55ZM168,79.1l-1.26-3.27-1.28,3.27Z"/><path class="cls-4" d="M178.2,82.55,176.87,80h-1.78v2.54h-2.4V73.38h4.12c2.44,0,3.83,1.18,3.83,3.22a3.11,3.11,0,0,1-1.64,3l1.91,3Zm-3.11-4.45h1.74c1,0,1.53-.49,1.53-1.42s-.56-1.39-1.53-1.39h-1.74Z"/><path class="cls-4" d="M184.27,73.38l4.17,5.52V73.38h2.22v9.17h-2.09l-4.16-5.49v5.49h-2.24V73.38Z"/><path class="cls-4" d="M194.85,73.38v9.17h-2.4V73.38Z"/><path class="cls-4" d="M198.74,73.38l4.16,5.52V73.38h2.22v9.17H203l-4.16-5.49v5.49h-2.24V73.38Z"/><path class="cls-4" d="M213,77.87h2.07v3.61a7.38,7.38,0,0,1-3.82,1.18A4.69,4.69,0,0,1,206.33,78a4.75,4.75,0,0,1,5.06-4.66,5.93,5.93,0,0,1,3.77,1.36l-1.36,1.68a3.72,3.72,0,0,0-2.42-1,2.64,2.64,0,0,0,0,5.28,3.71,3.71,0,0,0,1.58-.44Z"/><path class="cls-4" d="M357.34,79h2.07v3.61a7.39,7.39,0,0,1-3.83,1.18,4.68,4.68,0,0,1-4.9-4.68,4.75,4.75,0,0,1,5.06-4.66,5.87,5.87,0,0,1,3.77,1.36l-1.36,1.67a3.71,3.71,0,0,0-2.42-1,2.64,2.64,0,0,0,0,5.27,3.84,3.84,0,0,0,1.59-.43Z"/><path class="cls-4" d="M370.32,79.06a5,5,0,1,1-5-4.64A4.72,4.72,0,0,1,370.32,79.06Zm-7.46,0a2.59,2.59,0,0,0,2.53,2.64,2.63,2.63,0,1,0-2.53-2.64Z"/><path class="cls-4" d="M377.38,82h-4l-.64,1.63h-2.46l3.94-9.18h2.46l3.85,9.18H378Zm-.71-1.83-1.26-3.27-1.28,3.27Z"/><path class="cls-4" d="M383.78,74.48v7.14h3.88v2h-6.28V74.48Z"/><path class="cls-4" d="M335.79,226.58,333.41,223l-1.18,1.31v2.24h-2.4v-9.17h2.4v3.84l3.44-3.84h2.77L335,221.2l3.61,5.38Z"/><path class="cls-4" d="M341.74,217.41l4.16,5.52v-5.52h2.23v9.17H346l-4.17-5.5v5.5h-2.23v-9.17Z"/><path class="cls-4" d="M359.25,222a5,5,0,1,1-5-4.65A4.72,4.72,0,0,1,359.25,222Zm-7.46,0a2.59,2.59,0,0,0,2.53,2.64,2.64,2.64,0,0,0,0-5.26A2.57,2.57,0,0,0,351.79,222Z"/><path class="cls-4" d="M362,217.41l1.74,6.63,1.72-6.63h2.35l1.74,6.63,1.73-6.63h2.46l-3,9.17h-2.47l-1.65-6.19-1.7,6.19h-2.46l-3-9.17Z"/><path class="cls-4" d="M376.91,217.41v7.13h3.89v2h-6.29v-9.17Z"/><path class="cls-4" d="M389.12,217.41v1.91h-4.84V221h4.37v1.9h-4.37v1.73h5v1.91h-7.37v-9.17Z"/><path class="cls-4" d="M399.55,222c0,2.73-2,4.59-5,4.59h-3.86v-9.17h3.95C397.57,217.41,399.55,219.27,399.55,222Zm-2.45,0a2.45,2.45,0,0,0-2.48-2.65h-1.51v5.28h1.62A2.39,2.39,0,0,0,397.1,222Z"/><path class="cls-4" d="M406.66,221.9h2.07v3.61a7.39,7.39,0,0,1-3.83,1.18A4.69,4.69,0,0,1,400,222a4.75,4.75,0,0,1,5.06-4.66,5.87,5.87,0,0,1,3.77,1.36l-1.36,1.68a3.69,3.69,0,0,0-2.42-1,2.64,2.64,0,0,0,0,5.27,3.69,3.69,0,0,0,1.59-.43Z"/><path class="cls-4" d="M417.55,217.41v1.91H412.7V221h4.38v1.9H412.7v1.73h5v1.91h-7.37v-9.17Z"/><polygon class="cls-29" points="79.37 98.21 77.27 98.21 77.27 96.11 76.09 96.11 76.09 98.21 73.99 98.21 73.99 99.39 76.09 99.39 76.09 101.49 77.27 101.49 77.27 99.39 79.37 99.39 79.37 98.21"/><path class="cls-30" d="M434.39,178c-1-.43-1.74-.78-1.57-2.4a2.44,2.44,0,0,1,.91-1.76c.44-.38.67-.51.81-1.14.21-.94-.06-1.72.39-2.58s1.53-.83,2-1.69.61-1.57,1.56-1.86a.85.85,0,0,1,1.06,1.19A10.37,10.37,0,0,0,439,169a1.41,1.41,0,0,0,.32,1.11,2.05,2.05,0,0,1-.21,2.79c-.59.53-1,1-.74,1.85s.51,1.6-.39,2.46a2.63,2.63,0,0,1-2,.65c-.68,0-1.56.34-2.11-.11Z"/><path class="cls-6" d="M432.24,177.94c-.73.78-1.35,1.38-2.41.46a2.17,2.17,0,0,1-.77-1.84,1.74,1.74,0,0,0-.34-1.41c-.62-.76-1.51-1-1.91-2s.54-1.74.19-2.7-.88-1.6-.33-2.32,1.36-.23,1.7.44a10.12,10.12,0,0,0,.49,1.18,1.65,1.65,0,0,0,.94.58,2,2,0,0,1,1.56,1.78c0,.62.1,1.14.7,1.4a1.46,1.46,0,0,1,1.1,1.41,3,3,0,0,1-.4,1.74c-.23.56-.43,1.44-.94,1.76Z"/><path class="cls-4" d="M435.14,176.92H435a.08.08,0,0,1-.07-.08.09.09,0,0,1,.09-.07,1.61,1.61,0,0,0,1.3-.81,1.35,1.35,0,0,0,.19-1l0-.31a2.4,2.4,0,0,1,.53-2.11,2.32,2.32,0,0,0,.81-2.09,1.93,1.93,0,0,0,0-.24,4.38,4.38,0,0,1,0-1,2.11,2.11,0,0,1,.19-.47,1.71,1.71,0,0,0,.19-.58.08.08,0,0,1,.07-.08h0a.08.08,0,0,1,.08.08,1.6,1.6,0,0,1-.2.64,1.78,1.78,0,0,0-.18.44,4.66,4.66,0,0,0,0,.92c0,.08,0,.17,0,.25a2.46,2.46,0,0,1-.87,2.19,2.28,2.28,0,0,0-.48,2l0,.3a1.48,1.48,0,0,1-.21,1.09A1.89,1.89,0,0,1,435.14,176.92Z"/><path class="cls-4" d="M436.87,174.8a.43.43,0,0,1-.31-.16.07.07,0,0,1,0-.11.06.06,0,0,1,.1,0,.26.26,0,0,0,.26.1c.32-.08.67-.77.73-1a1.58,1.58,0,0,1,1.1-1.43.07.07,0,0,1,.1,0,.07.07,0,0,1,0,.1c-.71.27-.86.63-1,1.32-.05.23-.41,1-.84,1.14Z"/><path class="cls-4" d="M432.28,177.54a.79.79,0,0,1-.4-.1c-.53-.28-.78-1.1-1-1.83a4.79,4.79,0,0,0-.33-.92,4.11,4.11,0,0,0-1.32-1.46,2.26,2.26,0,0,1-1.06-1.85,4.44,4.44,0,0,0-.59-1.9.07.07,0,0,1,0-.11.07.07,0,0,1,.1,0,4.63,4.63,0,0,1,.62,2,2.14,2.14,0,0,0,1,1.75,4.48,4.48,0,0,1,1.37,1.51,5.11,5.11,0,0,1,.34.95c.21.7.44,1.49.92,1.74a.76.76,0,0,0,.63,0,.09.09,0,0,1,.1,0,.07.07,0,0,1-.05.09A1.12,1.12,0,0,1,432.28,177.54Z"/><path class="cls-4" d="M429.93,173.78h0a.08.08,0,0,1,0-.11c.23-.29.09-.75-.06-1.24a2.3,2.3,0,0,1-.14-1.22.07.07,0,0,1,.09,0s.07.06.05.1a2.23,2.23,0,0,0,.15,1.13c.15.5.3,1,0,1.37A.07.07,0,0,1,429.93,173.78Z"/><path class="cls-4" d="M430.7,174.81h0a1.83,1.83,0,0,1-.28-.14.82.82,0,0,0-.42-.16h-.29a1,1,0,0,1-.61-.08,3.61,3.61,0,0,1-1-.91c0-.06-.11-.16-.18-.26a1.52,1.52,0,0,0-.34-.43.09.09,0,0,1-.06-.09.08.08,0,0,1,.09-.06c.12,0,.25.2.44.5a1.91,1.91,0,0,0,.17.24,3.23,3.23,0,0,0,1,.87.83.83,0,0,0,.53.07H430a1,1,0,0,1,.49.19l.25.13a.08.08,0,0,1,0,.1A.07.07,0,0,1,430.7,174.81Z"/><path class="cls-31" d="M431.93,178.11c-1.08-.92-2.37-1.53-2.08-3.27.24-1.45,1.9-1.82,1.38-3.37-.33-1-1.19-2.13-.9-3.24s1.86-.71,2.19-1.81c.28-.93-.7-2,.17-2.77s2.14,0,2.55.73c.53,1-.35,1.72-.2,2.68.09.62.69.71,1.12,1.07a3.49,3.49,0,0,1,1.06,1.41c.56,1.6-1,2.18-1.53,3.41s1.11,1.52,1.23,2.69-1.25,2.31-2.37,2.52C433.79,178.3,432.61,178.68,431.93,178.11Z"/><path class="cls-4" d="M433.18,178.48h0a.08.08,0,0,1,0-.1,13.32,13.32,0,0,0,.14-6.14,8.12,8.12,0,0,1,.29-4.52,3.89,3.89,0,0,0,.29-1.75.07.07,0,0,1,.06-.09.08.08,0,0,1,.09.06,4.06,4.06,0,0,1-.29,1.83,7.81,7.81,0,0,0-.29,4.43,13.7,13.7,0,0,1-.14,6.23A.08.08,0,0,1,433.18,178.48Z"/><path class="cls-4" d="M433.37,172.22a.08.08,0,0,1-.08-.07.08.08,0,0,1,.07-.08,1.75,1.75,0,0,0,1.42-1.39,2.13,2.13,0,0,0,0-.27,1.88,1.88,0,0,1,.4-1.32.81.81,0,0,1,.66-.15.08.08,0,0,1,.07.08.1.1,0,0,1-.09.07.67.67,0,0,0-.54.12c-.29.23-.32.77-.35,1.21a2.46,2.46,0,0,1,0,.28,1.87,1.87,0,0,1-1.55,1.52Z"/><path class="cls-4" d="M432.91,172.24a1.19,1.19,0,0,1-.76-.27,1.71,1.71,0,0,1-.45-1.36,1.34,1.34,0,0,0,0-.21c0-.44.06-1.11-.22-1.41a.44.44,0,0,0-.35-.15c-.05,0-.08,0-.08-.08a.09.09,0,0,1,.08-.08h0a.67.67,0,0,1,.47.21,2.33,2.33,0,0,1,.26,1.51,1.62,1.62,0,0,0,0,.21,1.56,1.56,0,0,0,.39,1.25,1.22,1.22,0,0,0,1,.2.08.08,0,0,1,.09.06.09.09,0,0,1-.07.09Z"/><path class="cls-4" d="M433.81,177.23a.87.87,0,0,1-.28,0,.07.07,0,0,1,0-.1.08.08,0,0,1,.1-.05c.46.19,1.16-.32,1.43-.67a2.11,2.11,0,0,0,.26-.6c.14-.41.28-.85.67-.94a.07.07,0,0,1,.09.05.09.09,0,0,1-.06.1c-.3.07-.43.46-.56.84a2.45,2.45,0,0,1-.28.65A2.06,2.06,0,0,1,433.81,177.23Z"/><path class="cls-4" d="M433.13,177.2a1,1,0,0,1-.3,0,2.49,2.49,0,0,1-1.2-1.31,2.53,2.53,0,0,1-.12-.88c0-.53,0-1.09-.39-1.26a.07.07,0,0,1,0-.1.07.07,0,0,1,.1,0c.43.22.45.84.47,1.39a2.42,2.42,0,0,0,.11.83,2.38,2.38,0,0,0,1.11,1.22.67.67,0,0,0,.57,0,.08.08,0,0,1,.07.14A.94.94,0,0,1,433.13,177.2Z"/><path class="cls-16" d="M428.28,177.66a14.53,14.53,0,0,0-.86,5c0,5.32,2.64,9.63,5.9,9.63s5.89-4.31,5.89-9.63a14.53,14.53,0,0,0-.86-5Z"/><path class="cls-6" d="M439,179.94a13.8,13.8,0,0,0-.62-2.28H428.28a13.8,13.8,0,0,0-.62,2.28Z"/><text class="cls-32" transform="translate(80.62 221.62)">P<tspan class="cls-33" x="5.62" y="0">ASSION</tspan></text><text class="cls-34" transform="translate(202.16 221.36)">EXP<tspan class="cls-35" x="18.11" y="0">L</tspan><tspan x="23.1" y="0">ORE</tspan></text></g></g></svg>