<svg id="Layer_1" data-name="Layer 1" xmlns="http://www.w3.org/2000/svg" viewBox="0 0 1000 500"><defs><style>.cls-1{fill:#192734;}.cls-2,.cls-23{fill:#9bc1f9;}.cls-2{opacity:0.1;}.cls-3{fill:#256653;}.cls-4{fill:#3c8f7c;}.cls-5{fill:#327f6b;}.cls-6{fill:#50bfa5;}.cls-7{fill:#96d9c9;}.cls-8{fill:#f8a492;}.cls-9{fill:#355389;}.cls-10{fill:#fe875e;}.cls-11{fill:#13375b;}.cls-12{fill:#f7cc7f;}.cls-13{fill:#f48c7f;}.cls-14{fill:#f47458;}.cls-15{fill:#184655;}.cls-16{fill:#f7a491;}.cls-17{fill:#466eb6;}.cls-18,.cls-24{fill:#fff;}.cls-19{fill:#dd513a;}.cls-20{fill:#e0973f;}.cls-21{fill:#0e2e35;}.cls-22{fill:#6a97ce;}.cls-24{font-size:30px;font-family:Broadway;}.cls-25{letter-spacing:-0.02em;}.cls-26{letter-spacing:0.01em;}.cls-27{letter-spacing:-0.03em;}.cls-28{letter-spacing:0.01em;}.cls-29{letter-spacing:0em;}.cls-30{letter-spacing:-0.04em;}.cls-31{letter-spacing:-0.03em;}.cls-32{letter-spacing:0em;}</style></defs><rect class="cls-1" width="1000" height="500"/><path class="cls-2" d="M115.57,423.73H553.28c36.28-30.26,17.61-121.33-12.69-139.79C508,264.06,559.77,195.34,509.52,173c-32.81-14.57-85,1.31-78-37.66,9.73-54-104-67.88-187.84-53.32C153.1,97.8,235.84,175.23,136.2,190.83c-51.24,8-41.34,76.65-36.56,90.83,4.16,12.35,31.69,31.94-6.57,58.92C37,380.15,114.24,423,115.57,423.73Z"/><path class="cls-3" d="M504.37,192.58s-7.16,15.6-12,22.19S483,227.66,479.12,246s-3.19,20.13-4.24,24.85-7.91,23.87-7.94,27.38S453.09,321.66,449.55,331s-9.81,22.7-9.45,29.5l1.57-.4a73.14,73.14,0,0,1,12.2-31.88c10.92-16,9.36-19.05,21.75-27.28S496,270,496,270s12.61-24.7,12-37.55S510.81,208,504.37,192.58Z"/><path class="cls-3" d="M487.59,168.59s-.42,10.25-3.72,16.34-6.15,9.78-6.75,16.37-2.68,23.56-11.9,31.85-10.39,33.13-17.41,40.64-7.93,12.92-6.63,25.8,5.69,30.75-4.49,54.06l-2.3-5.8s7.29-19.18,5.52-30.4-7.89-28.2-5.65-36.34-6.1-9.73-1.07-22,3-16.59,9.8-27.23c0,0,.7-.5,2.5-9.5s16.31-25.51,23-31.14S484.8,176.55,487.59,168.59Z"/><path class="cls-4" d="M460.37,219.33s-8,13.7-8.12,22.52.84,16-3.21,28.08,4,19.71,1.67,26.38-2.49,14.56-2.42,20.55-9.17,25.8-10.58,35.84.39,10.06.39,10.06,1.53-13.24,3.66-17.62,8.59-19.48,10.1-25.33,5.6-9.59,9.13-19.48,8.55-18.23,8.17-32.27S474.43,239.2,460.37,219.33Z"/><path class="cls-4" d="M443.42,353.57s3.73-17.39,19.47-19.13,25,1.38,36.11-11.33,17.57-32.87,21.13-36.34c0,0-5.59-2.88-14.88,5.81s-15.81,15.27-21.19,20.32-9.74,1.76-15.42,5.1c-4.76,2.79-10.91,10.86-13.62,15.09a18.68,18.68,0,0,1-3.12,3.74c-1.09,1-2.39,2.24-3.22,3.15-1.67,1.82-6.48,13.65-6.48,13.65Z"/><path class="cls-4" d="M437.87,350.5s5.55-21.27,1.83-31.68-15.34-18.11-14.88-24.65,7.94-24.21,1.85-37.36c0,0-2.31,11.73-4.59,14.34s-17.95,13.14-15.17,27.05,18,17.15,21.75,21.24,8.81,4.09,8.84,6.81,1,12.62-.66,22.39Z"/><path class="cls-5" d="M443.94,336.27l7.79-22.45s4.58-18.06,7.23-33.11,1.41-61.38,1.41-61.38-8,13.7-8.12,22.52.84,16-3.21,28.08,4,19.71,1.67,26.38-2.5,14.56-2.42,20.55-9.17,25.8-10.58,35.84c-.77,5.49-.58,8-.25,9.12C436.21,353,443.94,336.27,443.94,336.27Z"/><path class="cls-5" d="M482.32,322.9c-6.95,1.38-13.16.91-21.42,7.05a69.13,69.13,0,0,0-13.1,12.71s-3.71,6.62-5.25,10.12l-.35.85,1.22-.06s3.73-17.39,19.47-19.13,25,1.38,36.11-11.33,17.57-32.87,21.13-36.34c0,0-11.83,9.2-19.14,17.34S489.27,321.51,482.32,322.9Z"/><path class="cls-5" d="M422.08,271.15c-2.29,2.61-17.95,13.14-15.17,27.05s18,17.15,21.75,21.24,8.81,4.09,8.84,6.81,1,12.62-.66,22.39l.45.81a126.41,126.41,0,0,0,2.34-14c.6-7.16-.56-10.12-2.86-15.92s-16.59-17.6-20.17-23.81,6.9-16.59,9.23-21.6.84-17.29.84-17.29S424.36,268.54,422.08,271.15Z"/><path class="cls-6" d="M459.23,340.23l2.45-5.92a8.36,8.36,0,0,1,10.85-4.64h0c10.32,4.51,14.8,17,10,28l-3.5,8a10,10,0,0,0,1.07,10.09,8.9,8.9,0,0,1,.88,8.89l-1.85,4.23a16.77,16.77,0,0,1-10.48,9.35,10.19,10.19,0,0,0-6.34,5.73l-2.61,6c-2.88,6.61-10.27,9.77-16.49,7.05l-3.56-1.55c-6.22-2.72-8.93-10.28-6-16.89h0c4.67-7.91,4.3-13.81,2.64-17.81a24,24,0,0,1,.23-18.69l.37-.84a23.79,23.79,0,0,1,14.52-13.15C454.21,347.18,457.15,345,459.23,340.23Z"/><path class="cls-7" d="M415.18,423.73c5-6.49,32.46-41.27,50.36-47.06,19.76-6.4,1.14,19,1.14,19s35.05-38.33,47.91-34.88c11.8,3.17,0,26.93,0,26.93s13.29-13.16,29.39-13.16c15.68,0-11,46.66-12.39,49.16Z"/><path class="cls-4" d="M520.82,348.5a230.92,230.92,0,0,0-30.75,73.62l-1-.27a232.64,232.64,0,0,1,30.64-73c3.32-5.19,6.91-11.36,13.13-13.38.12,0,.17.14,0,.19C527.22,337.81,523.93,343.64,520.82,348.5Z"/><path class="cls-4" d="M493.52,423a288.46,288.46,0,0,1,58.6-59.37c.23-.18.54.23.31.4a288.34,288.34,0,0,0-57.69,59.3Z"/><path class="cls-4" d="M522.13,334.63a10.13,10.13,0,0,1,2.19,3.81,7.76,7.76,0,0,1,.07,3.89,8.27,8.27,0,0,0,2.18-3.76c.7-2.24.21-5.36-.67-6.39-1.51-2.33-4.15-2.57-4.66-1.43S521.39,333.4,522.13,334.63Z"/><path class="cls-4" d="M525.55,354.59a10.26,10.26,0,0,0-3.77-2.26,7.76,7.76,0,0,0-3.89-.15,8.41,8.41,0,0,1,3.81-2.1c2.26-.66,5.36-.11,6.37.79,2.3,1.55,2.49,4.2,1.35,4.69S526.77,355.36,525.55,354.59Z"/><path class="cls-4" d="M520.38,363.35a10.11,10.11,0,0,0-3.77-2.27,7.76,7.76,0,0,0-3.89-.15,8.62,8.62,0,0,1,3.81-2.1c2.26-.66,5.36-.11,6.37.79,2.3,1.55,2.49,4.2,1.35,4.69S521.6,364.11,520.38,363.35Z"/><path class="cls-4" d="M538.83,383.64a10.34,10.34,0,0,0-3.77-2.27,7.82,7.82,0,0,0-3.89-.14,8.33,8.33,0,0,1,3.81-2.1c2.25-.66,5.35-.11,6.37.79,2.3,1.55,2.48,4.2,1.34,4.69S540.05,384.41,538.83,383.64Z"/><path class="cls-4" d="M548.25,375.34a10.11,10.11,0,0,0-3.77-2.27,7.82,7.82,0,0,0-3.89-.14,8.4,8.4,0,0,1,3.81-2.11c2.26-.66,5.36-.1,6.37.79,2.3,1.56,2.48,4.21,1.34,4.7S549.47,376.11,548.25,375.34Z"/><path class="cls-4" d="M514.89,344.53a10.17,10.17,0,0,1,2.77,3.42,7.79,7.79,0,0,1,.68,3.83,8.35,8.35,0,0,0,1.56-4.06c.34-2.33-.64-5.32-1.66-6.2-1.86-2.06-4.51-1.88-4.84-.68S514,343.43,514.89,344.53Z"/><path class="cls-4" d="M507.29,354.45c.64.34,2.87,1,4,2.63a6.86,6.86,0,0,1,1.35,4,11.38,11.38,0,0,0,1.52-5.21c.16-2.74-1.47-5.66-2.91-6.2-2.66-1.51-6.06-.17-6.34,1.31S506,353.62,507.29,354.45Z"/><path class="cls-4" d="M499.29,369.49c.68.22,3,.45,4.38,1.91a6.79,6.79,0,0,1,2,3.7,11.19,11.19,0,0,0,.62-5.38c-.3-2.73-2.4-5.34-3.9-5.63-2.88-1-6,.86-6,2.36S497.83,368.89,499.29,369.49Z"/><path class="cls-4" d="M523,380c.5.31,2.28.94,3.1,2.36a5.5,5.5,0,0,1,.87,3.32,9.09,9.09,0,0,0,1.53-4.15c.29-2.22-.87-4.69-2-5.21-2.07-1.38-4.92-.48-5.23.71S521.93,379.2,523,380Z"/><path class="cls-4" d="M535.3,338.15a6,6,0,0,0-2.14-1.51,4.65,4.65,0,0,0-2.29-.26,5,5,0,0,1,2.34-1.07,5,5,0,0,1,3.74.74c1.29,1,1.29,2.6.59,2.84S536,338.65,535.3,338.15Z"/><path class="cls-4" d="M532.42,331.76a5.92,5.92,0,0,1-.1,2.61,4.58,4.58,0,0,1-1.2,2,5,5,0,0,0,2.28-1.2,4.87,4.87,0,0,0,1.69-3.41c0-1.65-1.27-2.6-1.88-2.2S532.44,330.91,532.42,331.76Z"/><path class="cls-4" d="M555,366.89a6,6,0,0,0-2.14-1.51,4.65,4.65,0,0,0-2.29-.26A5.1,5.1,0,0,1,553,364a4.94,4.94,0,0,1,3.73.75c1.29,1,1.29,2.59.59,2.84S555.72,367.39,555,366.89Z"/><path class="cls-4" d="M551.57,360.44a6,6,0,0,1,.11,2.61,4.75,4.75,0,0,1-1,2.07,5.05,5.05,0,0,0,2.18-1.39,4.91,4.91,0,0,0,1.4-3.54c-.16-1.64-1.48-2.49-2.06-2S551.52,359.59,551.57,360.44Z"/><path class="cls-4" d="M549.16,402.07c-14.62,1.61-28.24,8.06-41.36,14.36-8.84,4.24-8.39,5.45-10.19,6.09a.37.37,0,0,1-.45-.5c.7-1.37,2.51-2.3,3.78-3.09a49.22,49.22,0,0,1,4.57-2.49c3.33-1.62,6.76-3.08,10.16-4.56a148.54,148.54,0,0,1,21.27-7.75A74.18,74.18,0,0,1,549.15,402a.06.06,0,1,1,0,.11Z"/><path class="cls-4" d="M536,397.54a9.29,9.29,0,0,1,.33,4.06,7.14,7.14,0,0,1-1.47,3.29,7.84,7.84,0,0,0,3.31-2.29c1.47-1.61,2.29-4.41,2-5.62-.35-2.55-2.47-3.79-3.34-3S535.85,396.21,536,397.54Z"/><path class="cls-4" d="M523.1,402.15a9.5,9.5,0,0,1,.33,4.07,7.35,7.35,0,0,1-1.48,3.29,7.91,7.91,0,0,0,3.31-2.3c1.48-1.6,2.29-4.41,2-5.62-.35-2.55-2.47-3.79-3.35-3S523,400.83,523.1,402.15Z"/><path class="cls-4" d="M510,408a9.45,9.45,0,0,1,.33,4.06,7.28,7.28,0,0,1-1.48,3.29,7.74,7.74,0,0,0,3.31-2.3c1.48-1.6,2.29-4.4,2-5.61-.35-2.55-2.47-3.79-3.35-3.05S509.87,406.66,510,408Z"/><path class="cls-4" d="M539.83,409.58a8.79,8.79,0,0,0-2-3.18,6.63,6.63,0,0,0-2.93-1.6,7.28,7.28,0,0,1,3.72-.16c2,.36,4.15,2,4.58,3.05,1.17,2.07.3,4.17-.76,4.1S540.47,410.63,539.83,409.58Z"/><path class="cls-4" d="M526.43,414.32a8.79,8.79,0,0,0-2-3.18,6.69,6.69,0,0,0-2.92-1.6,7.2,7.2,0,0,1,3.72-.15c2,.36,4.15,2,4.58,3,1.17,2.07.3,4.17-.76,4.11S527.07,415.37,526.43,414.32Z"/><path class="cls-4" d="M550,404.7a5.48,5.48,0,0,0-1.69-1.73,4.26,4.26,0,0,0-2-.62,4.63,4.63,0,0,1,2.31-.59,4.58,4.58,0,0,1,3.28,1.3c1,1.15.74,2.58.06,2.68S550.57,405.27,550,404.7Z"/><path class="cls-4" d="M548.49,398.39a5.63,5.63,0,0,1-.54,2.36,4.31,4.31,0,0,1-1.42,1.6,4.66,4.66,0,0,0,2.28-.71,4.54,4.54,0,0,0,2.11-2.83c.26-1.5-.72-2.58-1.35-2.31S548.65,397.62,548.49,398.39Z"/><path class="cls-4" d="M171.83,312.66c-17.19-15.32-26-37.33-30.41-53.09A157.35,157.35,0,0,1,136,228.66l-.93,0a157.54,157.54,0,0,0,5.49,31.12c4.43,15.91,13.36,38.15,30.75,53.66Z"/><path class="cls-4" d="M137.92,224.7a13.54,13.54,0,0,1-1.67,10.35,15.8,15.8,0,0,1-5.91-9.36A13.54,13.54,0,0,1,132,215.34,15.8,15.8,0,0,1,137.92,224.7Z"/><path class="cls-4" d="M132.65,235.92a15.74,15.74,0,0,1,5,9.86,13.67,13.67,0,0,1-9.78-3.93,15.73,15.73,0,0,1-5-9.85A13.72,13.72,0,0,1,132.65,235.92Z"/><path class="cls-4" d="M131.26,247.71a15.08,15.08,0,0,1,8.48,6.83,11.75,11.75,0,0,1-9.93,1.05,15,15,0,0,1-8.48-6.83A11.79,11.79,0,0,1,131.26,247.71Z"/><path class="cls-4" d="M136.92,261.89a11.05,11.05,0,0,1,6.57,6.24,8.33,8.33,0,0,1-8,1.64,11.07,11.07,0,0,1-6.56-6.24A8.32,8.32,0,0,1,136.92,261.89Z"/><path class="cls-4" d="M141.9,241.65a10.09,10.09,0,0,1,8.27-3,11.29,11.29,0,0,1-3.2,8.58,10.1,10.1,0,0,1-8.27,3A11.29,11.29,0,0,1,141.9,241.65Z"/><path class="cls-4" d="M144.56,251.81a10.05,10.05,0,0,1,8.27-3,11.31,11.31,0,0,1-3.2,8.57,10.08,10.08,0,0,1-8.28,3A11.35,11.35,0,0,1,144.56,251.81Z"/><path class="cls-6" d="M161.47,333.44c-15.87-2.31-29.45-11.71-38-19.19a110.14,110.14,0,0,1-15-15.87l-.56.32a109.39,109.39,0,0,0,15.13,16c8.68,7.56,22.4,17.06,38.47,19.4Z"/><path class="cls-6" d="M108,295.32a9.41,9.41,0,0,1,3,6.66,11,11,0,0,1-7-3.18,9.39,9.39,0,0,1-3-6.65A11,11,0,0,1,108,295.32Z"/><path class="cls-6" d="M109.25,303.87a10.92,10.92,0,0,1,6.7,3.8,9.53,9.53,0,0,1-7.19,1.47,11,11,0,0,1-6.71-3.8A9.56,9.56,0,0,1,109.25,303.87Z"/><path class="cls-6" d="M113,311.25a10.5,10.5,0,0,1,7.56.72,8.21,8.21,0,0,1-5.37,4.42,10.47,10.47,0,0,1-7.55-.72A8.17,8.17,0,0,1,113,311.25Z"/><path class="cls-6" d="M121.7,317.32a7.72,7.72,0,0,1,6.21,1.11,5.79,5.79,0,0,1-4,4,7.72,7.72,0,0,1-6.21-1.11A5.82,5.82,0,0,1,121.7,317.32Z"/><path class="cls-6" d="M116.83,303.65a7,7,0,0,1,3.66-4.91,7.87,7.87,0,0,1,1.43,6.22,7,7,0,0,1-3.66,4.9A7.84,7.84,0,0,1,116.83,303.65Z"/><path class="cls-6" d="M122.27,308.53a7,7,0,0,1,3.67-4.9,7.89,7.89,0,0,1,1.43,6.21,7,7,0,0,1-3.67,4.91A7.91,7.91,0,0,1,122.27,308.53Z"/><path class="cls-7" d="M171,380.94c-18.31,6.95-38.46,3.27-52.14-1a130.34,130.34,0,0,1-25.61-11.14l-.4.78a131.24,131.24,0,0,0,25.78,11.22c13.82,4.35,34.17,8.05,52.71,1Z"/><path class="cls-7" d="M91,365.05a13.21,13.21,0,0,1,7.22,6.75,11.49,11.49,0,0,1-9.4.28,13.19,13.19,0,0,1-7.22-6.74A11.49,11.49,0,0,1,91,365.05Z"/><path class="cls-7" d="M97.52,375.35a11.7,11.7,0,0,1,9.44.72,11.26,11.26,0,0,1-6.78,6.42,11.74,11.74,0,0,1-9.44-.72A11.26,11.26,0,0,1,97.52,375.35Z"/><path class="cls-7" d="M105.94,382.59a11.09,11.09,0,0,1,8.48-3.81,12.17,12.17,0,0,1-3,9.1,11.12,11.12,0,0,1-8.48,3.8A12.15,12.15,0,0,1,105.94,382.59Z"/><path class="cls-7" d="M117.72,386.33a11.09,11.09,0,0,1,8.48-3.81,12.1,12.1,0,0,1-3,9.09,11.09,11.09,0,0,1-8.47,3.81A12.14,12.14,0,0,1,117.72,386.33Z"/><path class="cls-7" d="M106.63,374.25a12.93,12.93,0,0,1-2.71-8.71,11.26,11.26,0,0,1,7.42,4.5,12.94,12.94,0,0,1,2.72,8.71A11.22,11.22,0,0,1,106.63,374.25Z"/><path class="cls-7" d="M118.88,378.08a12.93,12.93,0,0,1-2.85-8.67,11.19,11.19,0,0,1,7.48,4.37,13,13,0,0,1,2.85,8.68A11.16,11.16,0,0,1,118.88,378.08Z"/><path class="cls-7" d="M133.21,387.35a4.54,4.54,0,0,1,2.87-2.72,5.2,5.2,0,0,1,.17,4.15,4.56,4.56,0,0,1-2.87,2.73A5.22,5.22,0,0,1,133.21,387.35Z"/><path class="cls-4" d="M210.32,422.39s23.32-92.24,15.58-101.51c-10.68-12.81-19.5,29.68-20.37,26.08-8.17-34.09-10.34-77.7-36.7-82.31-15-2.63,3.46,32.42,2.35,41.91s-28.11-22-44.51-38.49-24.88-6.05-14.52,14.68c10,20.06,42.46,42,35.77,44.57S100.66,304,95.69,315.09c-6.1,13.57,54.78,32.05,49.05,35.09s-34.83-7-34,3.39,39.91,10,39.24,14.56c-1.08,7.39-26.95-9.34-28.09.89-1.16,10.46,34,8.55,33.43,16.71-.35,4.69-7.91-2.38-9,4.11-2.54,14.81,43.86,32.85,43.86,32.85Z"/><path class="cls-6" d="M228.1,423s-22.2-34-32.88-40.45c-11.38-6.85-2.71,13.65-2.71,13.65s-23.26-27.68-29.73-22-.59,12.13-.59,12.13-20.88-6.19-24.63,1.48c-5.77,11.77,28.6,21.54,28.6,21.54s-14.75-.16-12,7.79C158.22,429,228.1,423,228.1,423Z"/><path class="cls-7" d="M137.56,387.71c3.75-7.67,24.63-1.48,24.63-1.48s-5.87-6.51.59-12.13,25.07,11.2,25.07,11.2-1.95-13.87,12.06-1.65c10,8.74,28.19,39.3,28.19,39.3Z"/><path class="cls-7" d="M201.16,337.51l1-.68c-18.07-27.37-23.59-59.87-25-82.31a218.21,218.21,0,0,1,1.21-42.63l-1.23-.36a220,220,0,0,0-1.23,42.9C177.32,277.06,182.89,309.84,201.16,337.51Z"/><path class="cls-7" d="M181.89,207.63c0,5.5-1.87,10-4.91,12.77a24.45,24.45,0,0,1-5.11-14.74c0-5.5,1.86-10,4.91-12.77A24.51,24.51,0,0,1,181.89,207.63Z"/><path class="cls-7" d="M172.1,220A23.94,23.94,0,0,1,176,235c-4.23-1.2-8.49-4.46-11.57-9.32a23.93,23.93,0,0,1-3.84-15C164.76,211.87,169,215.13,172.1,220Z"/><path class="cls-7" d="M167.16,234.75a24.05,24.05,0,0,1,9.11,12.54c-3.9,1.09-8.64.2-13.07-2.89a24,24,0,0,1-9.11-12.54C158,230.77,162.73,231.67,167.16,234.75Z"/><path class="cls-7" d="M173,260.53a10,10,0,0,1,4.15,5,6.47,6.47,0,0,1-5.52-.78,10,10,0,0,1-4.15-5A6.43,6.43,0,0,1,173,260.53Z"/><path class="cls-7" d="M174.52,270.08a10,10,0,0,1,4.15,5,6.45,6.45,0,0,1-5.51-.78,10,10,0,0,1-4.16-5A6.43,6.43,0,0,1,174.52,270.08Z"/><path class="cls-7" d="M182.5,231.43A12.48,12.48,0,0,1,194,231.1a13.31,13.31,0,0,1-6.42,9.8,12.54,12.54,0,0,1-11.45.33A13.28,13.28,0,0,1,182.5,231.43Z"/><path class="cls-7" d="M183.21,245.81a12.56,12.56,0,0,1,11.46-.33,13.3,13.3,0,0,1-6.42,9.8,12.53,12.53,0,0,1-11.46.33A13.34,13.34,0,0,1,183.21,245.81Z"/><path class="cls-7" d="M182.5,266.4a8.18,8.18,0,0,1,7.46-.22,8.65,8.65,0,0,1-4.18,6.38,8.15,8.15,0,0,1-7.46.22A8.7,8.7,0,0,1,182.5,266.4Z"/><path class="cls-8" d="M437.51,347.56a4.53,4.53,0,0,1,2.24.72,40.24,40.24,0,0,0,4.11-1.86s11.21-5.53,11.81-5.85l8.09-10.18,6.23,2.87s-9.1,10.83-9.67,11.3-16.65,6.12-18.05,6.66c0,0-1.41,1.29-2.32,2.06a9.76,9.76,0,0,1-2.42,1.27,10.16,10.16,0,0,1-2.47.86c-1.23.27-.21-.56-.21-.56s2.17-.92,2.06-1.08-1.23.44-2.58.75l-1,.23c-.83.18-1.19-.3-.36-.63a8.32,8.32,0,0,1,1.16-.37,8.23,8.23,0,0,0,1.07-.42,9.79,9.79,0,0,0,1.09-.44s.06-.17-.31-.1-1.35.49-2,.57c-.38,0-1.17.18-1.17.18s-1.39.13-1.4-.06c0-.43.84-.67,1.36-.66a5.53,5.53,0,0,1,1.17-.29s1.61-.64,1.52-.87a10.92,10.92,0,0,0-2.05.12c-1.1.07-1.89.07-1.95-.14s.78-.46.78-.46l1-.17c.29-.07,1.16-.34,1.16-.34s3-1.09,2.86-1.31-.6-.68-.81-.68-.58.21-.79.21-.66,0-.69-.3,1.13-.81,1.13-.81A3.29,3.29,0,0,1,437.51,347.56Z"/><path class="cls-9" d="M458.13,336.69s2,1.84,2.86,2.44c.69.5,4.1,2.14,4.1,2.14s3.38-5.18,4.86-7.78c1.79-3.15,3-7.84,2.61-8a6.21,6.21,0,0,0-4.34.12C463,328,458.13,336.69,458.13,336.69Z"/><path class="cls-10" d="M439.47,350.27a2,2,0,0,1-2.22-.85C437.16,350.39,438.64,350.88,439.47,350.27Z"/><path class="cls-11" d="M188.57,313.92a18.34,18.34,0,0,0-1.66-8.81,7.44,7.44,0,0,0-6.63-3.79c-8.29,0-9.34,11-14.62,15.23-1.61,1.3-3.41,2.35-4.93,3.75-5.64,5.16-3.1,14.71,2.07,19.24,3.59,3.14,9.23,4.92,13.66,2.47a14,14,0,0,0,5.31-5.75,78.78,78.78,0,0,0,4.17-10.66A39.84,39.84,0,0,0,188.57,313.92Z"/><path class="cls-12" d="M189.93,328.53c-2.59-7.85-6-7.73-6-7.73l2.76,16.72c1.6-.43,3.68-1.41,5.28-1.86C191.43,333.18,190.56,330.47,189.93,328.53Z"/><path class="cls-13" d="M203,355.31l-9.47-7.21s-.95-6.74-2.22-12.72c-1.6.45-3,1.71-4.64,2.14l2.41,13.39,12.4,6.4,3.51,4.5.79-4.62Z"/><path class="cls-14" d="M289.27,344a16.23,16.23,0,0,1,8.08,2.13,8.89,8.89,0,0,0,1,.47,11.13,11.13,0,0,0,15.23-10.41V297.57H274.9a11.13,11.13,0,0,1-10.41-15.23,8.1,8.1,0,0,1,.47-1,16.39,16.39,0,0,0-15-24.45,16.39,16.39,0,0,0-13.6,24.25,9,9,0,0,1,.46,1,11.33,11.33,0,0,1-10.62,15.42H187.83v88.1a37.63,37.63,0,0,0,37.63,37.63h88.1V384.76a11.21,11.21,0,0,0-15.3-10.49,8.1,8.1,0,0,0-1,.47,16.39,16.39,0,1,1-8-30.7Z"/><path class="cls-12" d="M373.07,322.59a16.3,16.3,0,0,1,2.51-8,9.39,9.39,0,0,0,.51-.95,11.13,11.13,0,0,0-9.68-15.7l-38.62-1.81L326,334.78a11.13,11.13,0,0,1-15.7,9.69,7.78,7.78,0,0,1-.95-.52,16.4,16.4,0,1,0-1.54,28.6,8.5,8.5,0,0,1,1-.41,11.33,11.33,0,0,1,14.91,11.32l-1.79,38.29,88,4.12A37.62,37.62,0,0,0,449.26,390l4.12-88-38.5-1.8A11.21,11.21,0,0,0,403.69,315c.13.35.27.69.42,1a16.39,16.39,0,1,1-31,6.56Z"/><path class="cls-6" d="M265.45,261.78a16.23,16.23,0,0,1-1.72,8.18,10.37,10.37,0,0,0-.42,1,11.13,11.13,0,0,0,11.16,14.68l38.62-1.94-1.95-38.61a11.13,11.13,0,0,1,14.69-11.16,7,7,0,0,1,1,.42,16.39,16.39,0,1,0-1.23-28.62,8.91,8.91,0,0,1-1,.52,11.33,11.33,0,0,1-15.93-9.84l-1.93-38.28-88,4.43A37.63,37.63,0,0,0,183.09,202l4.43,88L226,288.08a11.21,11.21,0,0,0,9.71-15.81,9.39,9.39,0,0,0-.51-.95,16.27,16.27,0,0,1-2.51-8.78,16.39,16.39,0,0,1,32.76-.76Z"/><path class="cls-15" d="M344.49,240.47a16.37,16.37,0,0,1-8.08-2.13,8.1,8.1,0,0,0-1-.47,11.12,11.12,0,0,0-15.22,10.4v38.67h38.66a11.14,11.14,0,0,1,10.41,15.23,9.73,9.73,0,0,1-.47,1,16.4,16.4,0,1,0,28.64.21,9.05,9.05,0,0,1-.47-1,11.33,11.33,0,0,1,10.62-15.42h38.33v-88.1a37.63,37.63,0,0,0-37.63-37.63H320.21v38.54a11.21,11.21,0,0,0,15.3,10.49c.35-.15.67-.3,1-.47a16.26,16.26,0,0,1,8.89-2.07,16.4,16.4,0,0,1-.89,32.77Z"/><path class="cls-16" d="M162.67,411.07s-.59,4.06-1.59,5.37a10.7,10.7,0,0,0-1.36,1.79,5.28,5.28,0,0,0,.18,4.09c.24.52,0,.52.53.69a3.32,3.32,0,0,0,4-1.88,9.47,9.47,0,0,0,.78-3.46,12.62,12.62,0,0,1,1.32-5.56Z"/><path class="cls-16" d="M180.24,412.93a38.6,38.6,0,0,1,.07,6.06c-.16.8-1,2.44-.63,3.19a2,2,0,0,0,.86.94l10.37.16c.56,0,.19-.35-.26-.69a21.45,21.45,0,0,0-3.73-2.07c-.16-.07-.72-.43-.93-.56a6.7,6.7,0,0,1-1.48-1.31c-.75-.83-.81-4.86-.81-4.86Z"/><path class="cls-9" d="M188.35,352.09s1.3,7.43.45,12.3-5,50-5,50l-4.57.26s-1-18.86-.79-21.49a40.58,40.58,0,0,1,1.53-7L179.53,371l5.78-20Z"/><path class="cls-17" d="M174.9,350.52s-3.6,5.44-4.46,9.94.63,18.31-1,24.21c-.89,3.19-4.28,8.11-4.79,12.24s-2.53,14.92-2.53,14.92l4.57.91,10.63-27,8.33-24.38,2.14-12.55Z"/><path class="cls-12" d="M177.82,319.61s-4.77-.31-6.66,1.75,4.19,18.37,4.53,21-1.75,9.6-1.75,9.6,11.21,2.26,14.41.14c0,0,.34-18.87,0-20.74s-3.2-9.5-3.89-10.25S177.82,319.61,177.82,319.61Z"/><path class="cls-16" d="M179.41,313.22s0,.14-.07.38a36.43,36.43,0,0,1-1.59,6c-.67,1.26,2.29,5.3,5.14,4.81.84-.15-.72-3.71-.64-4.09.14-.72.33-1.71.53-2.72.12-.57.23-1.15.34-1.69.3-1.55.55-2.81.55-2.81Z"/><path class="cls-14" d="M179.34,313.6c0-.24.07-.38.07-.38l4.26-.11s-.25,1.26-.55,2.81c-.11.54-.22,1.12-.33,1.68a4,4,0,0,1-2-1,5.32,5.32,0,0,1-1.54-2.3C179.26,314,179.3,313.78,179.34,313.6Z"/><path class="cls-16" d="M182.28,303.5a3.85,3.85,0,0,0-3.27,1.4c-1.26,1.64-2.62,6.69.51,9.43s6.22-.36,6.68-3.66S186.84,303.38,182.28,303.5Z"/><path class="cls-16" d="M187.13,310.63c-.38.72-1,1.13-1.4.9s-.43-1,0-1.74,1-1.13,1.4-.9S187.5,309.9,187.13,310.63Z"/><path class="cls-11" d="M182.5,303s-2.68,4.8-4.61,5-2.17,2.77-2.17,2.77.69-5.88,2.59-7A7,7,0,0,1,182.5,303Z"/><path class="cls-14" d="M164.74,420.32a5.12,5.12,0,0,1-5-2.1,5.51,5.51,0,0,0-.48,4.1c.41.9,1.61.87,2.56.91a2.46,2.46,0,0,0,2.26-1.39A8.48,8.48,0,0,0,164.74,420.32Z"/><path class="cls-14" d="M186,420a9.35,9.35,0,0,1-5.91-.23,4.76,4.76,0,0,0-.47,2.48c.25.73.61.9.93.91,2.5.06,9.18.15,11.09.18a.32.32,0,0,0,.24-.52C191.39,422.22,186.19,420.09,186,420Z"/><path class="cls-16" d="M178.4,309.19c.15.86-.16,1.64-.7,1.75s-1.12-.49-1.27-1.34.16-1.64.7-1.75S178.24,308.34,178.4,309.19Z"/><path class="cls-18" d="M181.54,312.15l2.42.11a1.06,1.06,0,0,1-1.16.9C181.49,313.14,181.54,312.15,181.54,312.15Z"/><path class="cls-19" d="M388.33,118.78c.3,0,1.13.29,2.34,2.57,1.54,2.92,3.8,11.75,3.8,11.75l-6.74,2.51-.87-1.84-1.42-14.18S388.24,118.77,388.33,118.78Z"/><path class="cls-14" d="M379.42,117.51a41,41,0,0,1,8.91,1.27s1.62,14-1.47,24.6c-.69,2.38.58,9.86.58,9.86l-20-.27s2.37-18.08,1.47-21-.91-13.1-.91-13.1l4.49-.77A44.45,44.45,0,0,1,379.42,117.51Z"/><path class="cls-16" d="M377.09,179.18s.44,5.1,1.25,6.51,0,3.82-.08,4.15-1.71.8-4.36.52-2.61-.9-2.4-1.89,1.63-2.26,1.71-3.2a24.21,24.21,0,0,0-.81-4.33Z"/><path class="cls-20" d="M385.18,149s13.79-.77,16.87,1.09-2.19,11-2.19,11-9.59-.44-28.39.65c-4.45.25-4.83-11.61-4-12.59S385.18,149,385.18,149Z"/><path class="cls-19" d="M373.57,190.75c-2.74-.29-2.4-1.63-2.18-2.65a8.94,8.94,0,0,1,1.39-2.1,4.42,4.42,0,0,0,1.83.89c1.23.36,2.92-.36,4-.81a13.24,13.24,0,0,1,.37,3.52C378.92,189.94,376.3,191,373.57,190.75Z"/><path class="cls-12" d="M375.07,158.89l3.28,24.92-6.33.79s-7.78-27.09-7.38-31.23,3.31-4.5,3.31-4.5S373.61,147.85,375.07,158.89Z"/><path class="cls-16" d="M367.8,120.43c1.87-.7,2.79,16.12,3,23a82.71,82.71,0,0,0,10.51-.1c.67,0,2.23-.62,2.9-.71a6.69,6.69,0,0,1,1.65-.08,31.43,31.43,0,0,1,3.87,1.74c.36.38,1.35,1.35,1.18,1.77s-1.9-1.17-1.9-1.17l-.85-.47c1.06,1,3.07,2.39,2.78,2.88s-2.1-.89-3.39-1.83c1.11,1,2.49,2.79,2.17,3.07s-1.85-1.82-3.53-2.42c-.62-.22-1.24.39-1.73.46a3.37,3.37,0,0,1-1.26.08l-1.82-.52c-.62.06-.63.42-1.26.56s-1.91.31-2.84.54c-5.31,1.3-7.09,1.9-8.71,1.9C363.68,149.18,363.39,122.08,367.8,120.43Z"/><path class="cls-19" d="M364.26,136.23c-.35-7.1-.3-15.85,3.68-17.34,1.57-.59,4.33,3,3.84,17.48A30.18,30.18,0,0,1,364.26,136.23Z"/><path class="cls-16" d="M395.6,183.54a3.49,3.49,0,0,0,.43,3c1,1.17,5.1,2.32,5.64,2.95a1.77,1.77,0,0,1,.5,1.17l-11.53-.31.12-3.49.53-2.5Z"/><path class="cls-19" d="M396.75,187.07s-3,1.2-4.39.49-1.39-.91-1.81-.64-.56,3.53-.56,3.53l13,.38c.9,0,1.36-.69.63-1.26a11.13,11.13,0,0,0-1.42-.84A40.5,40.5,0,0,0,396.75,187.07Z"/><path class="cls-12" d="M395.16,152.29c.89-1.87,2.92-4.31,6.49-2.84,3.4,1.4,4.31,4.85,3.24,8.38s-8.14,24.29-8.39,27.14l-5.64,0s1-16.44,1.28-20.41A38.55,38.55,0,0,1,395.16,152.29Z"/><path d="M404.32,133.18H385.46a1.23,1.23,0,0,0-1.14.76l-5.81,14.22H368.12a.52.52,0,0,0-.53.52h0a.53.53,0,0,0,.53.53h29.59a2.06,2.06,0,0,0,1.88-1.22l5.85-13.07A1.23,1.23,0,0,0,404.32,133.18Z"/><path class="cls-18" d="M394.17,141.45a1,1,0,1,1-.78-1.36A1.12,1.12,0,0,1,394.17,141.45Z"/><path class="cls-21" d="M383.9,100.43a12.65,12.65,0,0,1-1.67-.67,8.18,8.18,0,0,0-1.9-.71,4.58,4.58,0,0,0-3.86,1c-1.25,1.35-3.46.24-3,7.31.5,8,5,7.12,5.06,7l4-5.12s1.35,2.95,1.35,2.84S390.73,102.73,383.9,100.43Z"/><path class="cls-16" d="M380.52,115l.39,2.86s.86,4.11-.25,4.91-4.71-5-4.71-5l.38-7.25Z"/><path class="cls-14" d="M376.21,112.81a8.19,8.19,0,0,0,4.64,4.58l-.33-2.42-4.19-4.51Z"/><path class="cls-16" d="M380.29,102.58a3.81,3.81,0,0,1,4.39,3.86,26.54,26.54,0,0,1-.32,3.66c-.51,3.3-2.76,6.21-4.25,6s-5.23-3.11-4.57-7.8C376,105.35,377.83,103,380.29,102.58Z"/><path class="cls-16" d="M376.57,108.81a1.11,1.11,0,1,1-.84-1.5A1.22,1.22,0,0,1,376.57,108.81Z"/><path class="cls-21" d="M375.73,107.31s1.8.44,2.47-.71,3.05-3.66,6.09-2.62-2.67-2.52-2.92-2.52l-3.15,0s-2.25,1.85-2.33,2-.73,2.42-.73,2.42Z"/><path class="cls-18" d="M379,112.14l3.28.62a1.46,1.46,0,0,1-1.76,1C378.77,113.48,379,112.14,379,112.14Z"/><path class="cls-8" d="M323.62,340.17a3.27,3.27,0,0,0,.35.87,33.49,33.49,0,0,0,3.41,4.53l1.85-4.15s-.3-1.3-.82-3.17C326.63,338.72,324.93,339,323.62,340.17Z"/><path class="cls-11" d="M334.19,336.57s-10.29,4.43-10.62,4.34-4.22-6.75-4.26-13.06c0-2.91,3-6.41,6.38-5.71,1.69.34,1.67.82,4.18,4.47S334.19,336.57,334.19,336.57Z"/><path class="cls-16" d="M343,416l-.24,4.05a22.2,22.2,0,0,0-.45,2.24c0,1.75,8.32-1.48,6.46-2.26-.17-.07-1.06-.6-1.11-1.2-.09-.92-.3-2.77-.3-2.77Z"/><path class="cls-19" d="M348.7,420a30.23,30.23,0,0,1-2.95.67c-1,.14-2.31-1-3-.69s-.75,3.36-.75,3.36,10.47.85,13.41,0C356.56,422.91,352.7,421.21,348.7,420Z"/><path class="cls-16" d="M326,416l-.25,4.05a22.08,22.08,0,0,0-.44,2.24c0,1.75,8.31-1.48,6.45-2.26-.17-.07-1.32-1-1.37-1.59a23.22,23.22,0,0,1,0-2.38Z"/><path class="cls-19" d="M331.7,420a30.23,30.23,0,0,1-2.95.67c-1,.14-2.32-1-3-.69s-.81,3.36-.81,3.36,10.52,1,13.47,0C339.53,422.87,335.69,421.21,331.7,420Z"/><path class="cls-16" d="M328.5,342.41l7.32-10.26.2-.55c.37-1,1.13-3.14,1.8-5.25v0c.21-.74.65-2,1.09-3.26S340,320,340,319.68l-.1-.26a23.87,23.87,0,0,1-.76-3.08c-.08-.46-.16-1.58.38-1.58.86,0,.45,1.12.85,1.82a17.87,17.87,0,0,0,.59-2.33l.15-2.18c0-.16-.15-1.37.45-1.37h0c.54,0,.53,1.31.76,3.48.07-.25.14-.55.19-.83a7.37,7.37,0,0,1,.18-1.14c-.1-.6,0-1.55.6-1.46.32,0,.3,1.37.3,1.37,0,.18,0,1.58,0,1.86.07-.47.33-2.48.83-2.48s.45.54.44,1c0,.25-.26,2.43-.28,2.68.2-.33.43-2.25.63-2.25.81,0,.52,2.73.22,3.44a3.78,3.78,0,0,0-.1.38,6.74,6.74,0,0,1-.69,2c-.52.87-1.22,2.26-1.33,2.48-.08.43-.32,2-.63,4-.13.84-.28,1.76-.43,2.72h0c0,.2-.18.86-.76,3.33a27,27,0,0,1-.91,3.58c-.34.61-8.23,11.33-8.57,11.79l-.2.27Z"/><path class="cls-14" d="M342.12,318.48s-.6-1.52-1.66-1.52a1.23,1.23,0,0,1,1.1.19A2.08,2.08,0,0,1,342.12,318.48Z"/><path class="cls-16" d="M326.73,315.55l-1,6s3.6,2.88,5.69,2.27c1.76-.51.55-2.8.55-2.8a15.11,15.11,0,0,1-.65-4.85C331.66,314.46,326.73,315.55,326.73,315.55Z"/><path class="cls-10" d="M327.4,317.35a14.81,14.81,0,0,0,4.07,1.15,8.1,8.1,0,0,1-.1-2.37c.14-.77-.84-1-1.94-.93-1.43.12-2.7.35-2.7.35l-.18,1.14A2.84,2.84,0,0,0,327.4,317.35Z"/><path class="cls-16" d="M322.19,308.67c-.14,0,1.42,6.66,3.85,7.81s6,.55,6.73-1.25c.75-2-2-8.78-5.41-9.64S322.19,308.67,322.19,308.67Z"/><path class="cls-11" d="M325,302.55a7.55,7.55,0,0,0-3.12,3.46c-.91.43-2,1.36-2.54,3.88-.65,3.09,1.66,5.48,4.11,6.19s2.82,2.34,2.82,2.34l.28-1.74a6.85,6.85,0,0,0-1.36-2.28c-.82-.76.38-1.87.49-2.77.08-.7-.43-2.05-.32-3.19a7.88,7.88,0,0,1,2.7-2.57C330.35,305,327.49,301.12,325,302.55Z"/><path class="cls-16" d="M326,312.79c.32.77.19,1.53-.29,1.7s-1.12-.31-1.43-1.08-.19-1.53.29-1.7S325.72,312,326,312.79Z"/><path class="cls-8" d="M335.07,342.57l14.13-2.3s-1.61-4-2.18-4-10.68,4.42-10.68,4.42l-.81,1.61Z"/><path class="cls-15" d="M327.84,352.26s-1.41,6.81-.84,12,.62,23.52.62,23.52l-2.19,29.35,5.2.11s6.17-29.34,6.05-28.58S338.75,368,338.75,368l-7.35-16.36Z"/><path class="cls-11" d="M329.22,351.93s-.92,6.14.23,8.83,9.85,29.08,10,31.23,3,25.94,3,25.94l6-.17,1.31-26.44L347,358.08l-2.66-8.41Z"/><path class="cls-16" d="M325.78,321.51a5.43,5.43,0,0,0,2.89.86A9.5,9.5,0,0,0,332,321l-.27-.93s-3.6-.52-3.69-.47S325.78,321.51,325.78,321.51Z"/><path class="cls-8" d="M341.67,336s5.35,5,7.76,4.18,3.41-3.81-2.48-8.11C341.69,328.24,341.67,336,341.67,336Z"/><path class="cls-9" d="M345.29,342.25c-.79-4.32-6.54-17.75-7-20.23-.23-1.2-3.33-1.23-6.28-1.07-3.12.16-6.23.56-6.23.56s-2.76.45-4,1.59-1.54,4.29.2,10.27c1.38,4.72,3.09,7.32,3.94,10.76.17,1.15.32,2.29.51,3.62.31,5.14,0,11.93,0,11.93s15,3.12,20.67-1.61C347.13,358.07,346.11,346.67,345.29,342.25Z"/><path class="cls-17" d="M349.13,333s-5.9,4.87-6.25,4.87-8.42-6-10.32-11c-1-2.74,1.15-5.81,3.66-5.8,1.74,0,2.51.46,6,3.36S349.13,333,349.13,333Z"/><path class="cls-11" d="M245.29,115.47c1-2.33,2-4.66,4.46-5.84a5.6,5.6,0,0,1,6,.76c5.11,3.85.66,8.08,6.48,15.37,1.81,2.27,4,4.1,5.08,6.75,1.52,3.72-.29,5.51-3.19,7.29-13.85,8.51-21.12-9-20.85-13A64.27,64.27,0,0,1,245.29,115.47Z"/><path class="cls-16" d="M230.91,160.79c.58-.09,2-1.11,2.5-1.2l1.59-.25c.44-1.64,2.66-10.56,2.91-13.18.27-2.83,2.28-15.08,2.28-15.08l5.18.94s-2.15,9.43-2.75,14c-.51,3.93-4.82,12.75-5.36,13.69a.13.13,0,0,0,0,.06c-.08,1.39-.75.93-.75.93l-1.08.27s-3.84.37-4.09.47S230.33,160.88,230.91,160.79Z"/><path class="cls-22" d="M244.71,123.91C241,125.15,239,135.12,239,135.12s5.75,1.61,7.22.77c0,0,1.68-7.42,2.28-7.16Z"/><path class="cls-16" d="M216.34,178a38.67,38.67,0,0,0-1.75,6.16c0,.16.2,1,.18,1.14-2.25,3.07-5.49,3.75-8.26,3.94,1.41-1.38,3.49-2.69,3.59-3.12a54.56,54.56,0,0,0,1.43-8.09C213.26,178.83,214.43,178.2,216.34,178Z"/><path class="cls-3" d="M248.26,144.91l5,14-10.94,2c-3,.55-19.61,1.27-20,1.57s-3.75,11.33-5.29,17.46a14.58,14.58,0,0,1-6.31-.62c.86-8.77,4-22.66,5-24.18C217.2,152.68,248.26,144.91,248.26,144.91Z"/><path class="cls-16" d="M228.9,184.13a39.82,39.82,0,0,0-.58,6.38c0,.17.39.91.4,1.08-1.63,3.44-4.69,4.71-7.38,5.42,1.13-1.62,2.93-3.29,2.94-3.74a53.39,53.39,0,0,0-.1-8.21C226,185.52,227.05,184.68,228.9,184.13Z"/><path class="cls-5" d="M254,145.63l1.92,3.29a9.4,9.4,0,0,1-4.71,13.52l-.09,0c-2.82,1.1-19,4.93-19.38,5.3s-1.56,11.83-1.92,18.14a14.48,14.48,0,0,1-6.32.57c-.8-8.77-.36-23,.33-24.67C225,159.09,254,145.63,254,145.63Z"/><path class="cls-11" d="M228.08,190.61c.43-.48,2,2.14,2.41,2.7a1.23,1.23,0,0,1,.26,1.2c-.14.26-8.49,5.18-10.53,5.53a1,1,0,0,1-.61-.17c-.79-.7,2.87-5.9,4.52-6.59A7.93,7.93,0,0,0,228.08,190.61Z"/><path class="cls-11" d="M214.32,184.26c.51-.38,1.58,2.49,1.86,3.11a1.25,1.25,0,0,1,0,1.23c-.19.23-9.32,3.49-11.38,3.46a1.06,1.06,0,0,1-.57-.28c-.65-.84,3.92-5.26,5.67-5.63A7.82,7.82,0,0,0,214.32,184.26Z"/><path class="cls-23" d="M248.19,123.88h0a1.48,1.48,0,0,1-.37-.07,6.38,6.38,0,0,0-3.33.18c-1.41.6-3.6,6.15-3.47,11.86.06.87.11,1.65.15,2.19.36,4.31,1.6,12.39,1.66,12.43,1.68,1.09,11.83-3.11,12.52-4s1.11-12.12,1.45-12.67l.67-9.74C256.29,123.68,250,123.87,248.19,123.88Z"/><path class="cls-16" d="M252.3,120.3a25.73,25.73,0,0,0-.53,4.71c.13,1.33-.49,5.62-3.31,5.64s-.54-5.46-.27-6.77a50.74,50.74,0,0,0,.32-5.34Z"/><path class="cls-14" d="M248.46,120.56c0-1.1,0-2,0-2l3.79,1.76s-.14.69-.27,1.57A3.29,3.29,0,0,1,248.46,120.56Z"/><path class="cls-16" d="M253.68,111a4.63,4.63,0,0,1,2,2.56c.53,1.75-.07,6.27-3.84,7.36s-5.39-2.49-4.62-5.29S249.67,109.27,253.68,111Z"/><path class="cls-16" d="M246.74,114.53c.07.75.49,1.32.93,1.28s.73-.69.66-1.44-.49-1.32-.93-1.28S246.67,113.78,246.74,114.53Z"/><path class="cls-11" d="M253.24,110.75s.68,5,2.31,6,.95,3.15.95,3.15,1.48-5.2.19-6.87A7.21,7.21,0,0,0,253.24,110.75Z"/><path class="cls-16" d="M254.58,117.42c-.44.66-.44,1.44,0,1.74s1.16,0,1.6-.65.44-1.44,0-1.73S255,116.77,254.58,117.42Z"/><path class="cls-18" d="M249.1,117.71l2.65.66a1.2,1.2,0,0,1-1.49.75C248.83,118.8,249.1,117.71,249.1,117.71Z"/><path class="cls-6" d="M262.27,160.37l11.44-.58s-4.69,3.38-4.79,3.38-3.74-1.44-3.9-1.44S262.27,160.37,262.27,160.37Z"/><path class="cls-16" d="M491.26,416.12s.22,4,.23,4c.08.5.4,1.75.4,2.21,0,1.72-7.63-1.46-5.92-2.23.16-.07,1-.59,1-1.17.08-.9.28-2.73.28-2.73Z"/><path class="cls-12" d="M485.9,420.09a26.64,26.64,0,0,0,2.71.66c.92.13,2.12-1,2.77-.68s.69,3.3.69,3.3-9.61.84-12.31,0C478.69,423,482.24,421.32,485.9,420.09Z"/><path class="cls-16" d="M504,415.91l.22,4a20.58,20.58,0,0,1,.41,2.2c0,1.72-7.63-1.46-5.92-2.22.15-.07,1.21-1,1.26-1.57.08-.9,0-2.33,0-2.33Z"/><path class="cls-12" d="M498.7,419.85a26.64,26.64,0,0,0,2.71.66c.92.13,2.13-1,2.77-.68s.75,3.3.75,3.3-9.54.39-12.37,0C491.45,422.93,495,421.08,498.7,419.85Z"/><path class="cls-9" d="M501.71,352.9a48.75,48.75,0,0,1,.76,11.76c-.52,5.08-.57,23.1-.57,23.1l2.44,28.84-5.2.12s-5.66-28.83-5.55-28.09-1.9-20.3-1.9-20.3l6.75-16.07Z"/><path class="cls-17" d="M499.9,348.58s5.86,6.17,3.68,12.91c-.88,2.71-9,28.57-9.15,30.69s-2.76,25.48-2.76,25.48l-5.55-.17-1.2-26,1.58-35,3.37-5.9Z"/><path class="cls-14" d="M464.32,328.49a51.57,51.57,0,0,1,6.1-5.19,20,20,0,0,1,3.5-2.47c1.49-.52,4.05-1.89,7.75,3.71,2.64,4,19.34,24.78,22.08,25.48l-17.9,8.56c-.49-4.09-9.33-11.81-10.61-13.25C472.4,342.1,462.51,330.52,464.32,328.49Z"/><path class="cls-16" d="M465.16,319.79l5.57,3.26s.16,4.76-1.66,6c-1.53,1-2.7-1.45-2.7-1.45s-2.07-2.88-3.64-3.77S465.16,319.79,465.16,319.79Z"/><path class="cls-14" d="M466.09,321.88a11.6,11.6,0,0,1-1.44,3.61,9.43,9.43,0,0,0-1.92-1.66c-.73-.42-.27-1.31.44-2.15,1-1,2-1.89,2-1.89l1.07.63A4.93,4.93,0,0,1,466.09,321.88Z"/><path class="cls-16" d="M462.25,311.61c.1-.12,4.68,5.59,4.12,8.26S463,325,461.1,324.32c-2.13-.74-6.09-7.46-4.67-10.72S462.25,311.61,462.25,311.61Z"/><path class="cls-11" d="M457.24,309.81a8.69,8.69,0,0,1,7.69-.16c3,1.57,3.67,5.51,2.74,7.92a3.9,3.9,0,0,0,.13,3.77l-1.59-.93a7.62,7.62,0,0,1-1-2.6c-.13-1.16-1.81-.95-2.63-1.48-.63-.4-1.44-1.71-2.47-2.39,0,0-2.57-.32-3.84.4C454.07,315.55,454.37,311.4,457.24,309.81Z"/><path class="cls-16" d="M463.83,317.29c0,.86.39,1.56.9,1.57s.94-.68,1-1.54-.39-1.55-.91-1.56S463.84,316.44,463.83,317.29Z"/><path class="cls-18" d="M459.13,321.84l2.43-1.82a1.34,1.34,0,0,1-.4,1.81C459.88,322.84,459.13,321.84,459.13,321.84Z"/><path class="cls-8" d="M453,357.93c.61-.88.87-2.17,1.71-3.14a7.41,7.41,0,0,1,1.24-1.07c4.05-2.37,14.58-8.46,15-8.94s7.67-12.5,7.67-12.5l-6.45-1.46L465.89,342c-.53.42-10.54,7.82-10.54,7.82s-2,1.55-3.08,2.28a8.74,8.74,0,0,1-1.55.69,10.9,10.9,0,0,0-1.94,1l-1.1,1c-.31.3-.69.65-.84.83a2.25,2.25,0,0,1-.57.36.37.37,0,0,0,.06.69,1.61,1.61,0,0,0,1-.23c.73-.34,1.61-1.26,1.66-1.15a23.58,23.58,0,0,1-.94,2.32,27.35,27.35,0,0,0-1.18,3c-.05.51.26.63.49.44s1.86-3.22,1.86-3.22.21-.39.29-.17-1.42,3-1.56,3.47,0,.83.39.67,1.93-3.27,1.93-3.27.19-.38.32-.25-1.2,2.48-1.21,2.75a.35.35,0,0,0,.58.32,16.69,16.69,0,0,0,1.67-3s.15-.18.2-.05-.93,2.21-.86,2.52a.24.24,0,0,0,.29.2C451.76,361,452.43,358.82,453,357.93Z"/><path class="cls-9" d="M476.89,338.59s-2.11-.67-3.46-1.29c-.9-.41-4.84-2.37-4.84-2.37a86.13,86.13,0,0,1,2.85-9.74c4.21-9.46,9-2.94,9.65-1.42C482.54,327.17,476.89,338.59,476.89,338.59Z"/><path class="cls-18" d="M330,313.83l2-1.5a1.11,1.11,0,0,1-.33,1.5C330.65,314.66,330,313.83,330,313.83Z"/><path class="cls-15" d="M564.92,423.15H100.06a1.23,1.23,0,0,0-1,1.35h0a1.22,1.22,0,0,0,1,1.34H564.92A1.22,1.22,0,0,0,566,424.5h0A1.23,1.23,0,0,0,564.92,423.15Z"/><path class="cls-16" d="M274,159.78c-.05-.12-.15-.12-.26-.12a27.48,27.48,0,0,1-3.14-.24,1.74,1.74,0,0,1-.51-.13,1.34,1.34,0,0,0-.86,0,1.6,1.6,0,0,1-.49.05c-.52,0-2-.51-2.8-.65a.44.44,0,0,1-.36-.34c-.77-3-2.4-9.76-2.61-12-.27-2.84-2.23-15.64-2.23-15.64l-5.25,1.46s2.16,9.45,2.76,14c.46,3.54,4,11.05,5.1,13.21a2.23,2.23,0,0,0,2,1.69.69.69,0,0,1,.42.22,3.05,3.05,0,0,0,.66.58,1.38,1.38,0,0,1,.45.45c.23.32.42.66.62,1s.27.3.46.25a.42.42,0,0,0,.31-.47,2.11,2.11,0,0,0-.32-1,.57.57,0,0,1,.05-.75,2,2,0,0,1,.39-.44.67.67,0,0,1,.54-.19,8.49,8.49,0,0,0,1.14.21l.32.06.17,0s.59.07.78.07l.61,0a3.35,3.35,0,0,0,.61-.09.74.74,0,0,0,.49-.2c.06,0,.11-.11.08-.19a.18.18,0,0,0-.17-.13,6.73,6.73,0,0,1-.77-.13l1,0a.92.92,0,0,0,.66-.29C273.93,160,274,159.9,274,159.78Z"/><path class="cls-23" d="M257.53,124c2.59-.47,4.73,11.11,4.73,11.11s-5.76,1.61-7.23.77c0,0-1.68-7.42-2.27-7.16Z"/><path class="cls-16" d="M194.92,332.26c.17-.49-2.22-.89-2.35-1.38s3-.54,3.13-1c.21-.8-3.44-.16-3.37-.54s3.8-1.22,3.4-1.86-3.78,1.27-3.88.84,3.3-1.51,3.24-2.47c0-.51-5.59,2.56-6.23,2.28s.69-2.69.18-3-2,4.9-2.34,5.08-7.86,4.46-10.53,5.14c-.32-.9-1-2.1-1.31-2.95-1.49,1.07-2.61,1.6-4.15,2.57,1.12,2.81,2.71,5.88,3.49,6.24,2.38,1.07,11.57-6.55,13.4-7.85s2.89-.89,4.13-1.3S194.75,332.75,194.92,332.26Z"/><path class="cls-12" d="M170.39,336.29s-2.06-9.08-1.7-11.71,3.49-5.09,5.66-4.18S177.5,334,177.5,334Z"/><text class="cls-24" transform="translate(607.74 222.85)">Building ene<tspan class="cls-25" x="204.92" y="0">r</tspan><tspan x="220.21" y="0">gy and </tspan><tspan x="-23.09" y="36">momentum </tspan><tspan class="cls-26" x="182.56" y="36">t</tspan><tspan x="195.75" y="36">o c</tspan><tspan class="cls-27" x="238.13" y="36">r</tspan><tspan x="253.02" y="36">ea</tspan><tspan class="cls-28" x="292.1" y="36">t</tspan><tspan x="305.28" y="36">e a </tspan><tspan x="-33.54" y="72">sha</tspan><tspan class="cls-27" x="24.76" y="72">r</tspan><tspan x="39.64" y="72">ed </tspan><tspan class="cls-29" x="87.48" y="72">g</tspan><tspan class="cls-30" x="104.43" y="72">r</tspan><tspan x="119.28" y="72">oup </tspan><tspan class="cls-31" x="189.29" y="72">e</tspan><tspan x="206.31" y="72">xpe</tspan><tspan class="cls-32" x="267.51" y="72">r</tspan><tspan x="283.36" y="72">ience</tspan></text></svg>