<svg id="Layer_1" data-name="Layer 1" xmlns="http://www.w3.org/2000/svg" viewBox="0 0 1000 500"><defs><style>.cls-1{fill:#192734;}.cls-2{fill:#892122;}.cls-3{fill:#d76e4c;}.cls-4{fill:#cba068;}.cls-5{fill:#ffb77d;}.cls-6{fill:#504c25;}.cls-7{fill:#a38250;}.cls-8{fill:#997442;}.cls-9{fill:#c0b672;}.cls-10{fill:#d7cd86;}.cls-11{fill:#cdc47d;}.cls-12{fill:#4d515d;}.cls-13{fill:#f6a66f;}.cls-14{fill:#ff701e;}.cls-15{fill:#232424;}.cls-16{fill:#6a707d;}.cls-17{font-size:30px;fill:#fff;font-family:Broadway;}.cls-18{letter-spacing:0.01em;}.cls-19{letter-spacing:-0.01em;}.cls-20{letter-spacing:-0.03em;}.cls-21{letter-spacing:-0.03em;}.cls-22{letter-spacing:-0.01em;}.cls-23{letter-spacing:-0.01em;}</style></defs><rect class="cls-1" width="1000" height="500"/><polygon class="cls-2" points="430.57 187.33 407.9 315.42 398.21 383.84 404.09 381.71 412.75 320.27 421.57 274.06 433 247.7 431.09 243.09 422.61 263.51 437.19 187.33 430.57 187.33"/><path class="cls-3" d="M337,129.56c-7.45-11.25-32.49-9.57-37.1,2.57s4.52,26.5,14.15,25.81c5.72-.41,12.24-1.23,16.6-1.83a9.15,9.15,0,0,0,7.34-5.9C339.88,145,341.6,136.6,337,129.56Z"/><path class="cls-2" d="M316.28,155.86a.67.67,0,0,1-.51-.22c-.36-.39-8.84-9.64-8.33-15.19.46-4.93,1.79-8.21,4.08-10a8.66,8.66,0,0,1,6.77-1.55c7.18.95,14.7,2.59,16,7.54.89,3.31,1.24,8.33-.72,11.62a6.43,6.43,0,0,1-4.18,3.08c-8.13,1.95-11.19-.45-12.32-2.79-1.58-3.28-2.34-9,.9-11.47a7.84,7.84,0,0,1,6.81-.85,5.45,5.45,0,0,1,3.79,3.14,6.35,6.35,0,0,1-.43,5.3,3.32,3.32,0,0,1-2.43,1.61.7.7,0,0,1-.76-.61.69.69,0,0,1,.61-.76,2,2,0,0,0,1.41-1,4.92,4.92,0,0,0,.29-4.12,4.2,4.2,0,0,0-2.89-2.26,6.5,6.5,0,0,0-5.56.63c-2.59,2-1.83,7-.49,9.77,1.65,3.42,6.76,3,10.75,2.05a5.12,5.12,0,0,0,3.31-2.45c1.63-2.73,1.46-7.26.57-10.54-1.13-4.2-8.55-5.7-14.88-6.54a7.33,7.33,0,0,0-5.73,1.26c-2,1.58-3.14,4.55-3.56,9.08-.46,4.94,7.88,14,8,14.12a.69.69,0,0,1-.5,1.16Z"/><path class="cls-4" d="M339.46,158.54s-1.56-4.15-12.64-6.23-18.95,1.89-20.33,3.85-17.11,24.19-16.34,25.32,2.58,1.9,2.84,1.55S339.46,158.54,339.46,158.54Z"/><path class="cls-4" d="M283.72,198.9S271,200.39,269.51,201s-11.31,34-10.15,39.23,13.15,9.12,13.38,8.77S283.72,198.9,283.72,198.9Z"/><polygon class="cls-5" points="351.36 207.41 370.62 235.19 421.05 221.8 427.8 222.69 433.83 222.45 437.19 212.74 435.15 211.48 435.27 207.74 425.21 207.15 419.96 212.28 376.79 218.54 361.46 194.99 351.36 207.41"/><path class="cls-5" d="M284.74,330,281.28,341S273.2,351.65,270,359.73s-14.54,47.76-14.54,47.76h10.62L304,330Z"/><path class="cls-6" d="M251.57,407.49H269v4.39l-1.15,2.42s1.38,7.27,3,8.42,20.53,1.5,23.42,5.08,2.88,6.34,2.88,6.34H247S251.11,417,251.57,407.49Z"/><rect class="cls-7" x="244.65" y="434.14" width="54.57" height="5.19"/><path class="cls-8" d="M294.2,276.43l-12.92,58.84s14.1,6.69,23.89,4.15l28.95-55.84S304.59,269.27,304,269,294.2,276.43,294.2,276.43Z"/><path class="cls-5" d="M369.53,263.51l31,4.23-14,89.45h-8.77s-1.38-30.46-2.07-38.77,4.68-29.84,4.68-29.84l-18.66-2.23Z"/><path class="cls-6" d="M375,357.19h17.42v4.38L391.23,364s1.38,7.27,3,8.42,20.54,1.5,23.42,5.08,2.88,6.34,2.88,6.34H370.35S374.5,366.65,375,357.19Z"/><rect class="cls-7" x="368.04" y="383.84" width="54.57" height="5.19"/><path class="cls-7" d="M348.3,258.2l32.78,5.31-8.78,27s-43.67,2.53-52.38,1.39c-14.47-1.91-26.13-13.59-26.13-13.59s11.13-15.26,11.59-15S348.3,258.2,348.3,258.2Z"/><path class="cls-5" d="M376.14,158a3.43,3.43,0,0,1-1.78-2.51,66.63,66.63,0,0,0,.6-8.93c-.23-7.5-9.57-16.16-18.23-14.08s-11,7.85-11.77,14.31a58.5,58.5,0,0,0,.35,13.84L338,169.42s10.13,11,18.09,10.76l-1.23-6.06,3.72-3.72a29.6,29.6,0,0,0,13.27.8s.83-4.29,1.64-9.52C375.26,160.85,377.94,158.88,376.14,158Z"/><path class="cls-9" d="M332.79,178.7s3.23-7,9.44-7.47S355,177.4,359.86,186s6.06,9.36,6.06,9.36l-15.26,13.35S330,186.47,332.79,178.7Z"/><path class="cls-10" d="M353.34,214.82l-5.3-7.95s13.23-13.25,17.21-13.92l5.37,8S356.8,211.5,353.34,214.82Z"/><path class="cls-11" d="M357.61,181.13a5,5,0,0,0-1.67-3.56,35.59,35.59,0,0,0-8.58-5.25c-6.34-5.34-16.18-3-16.18-3l-24,35.4s-13.86,34.61-15.94,48.22A73.14,73.14,0,0,0,292.35,279s34.45-2,47.72-8.45,12.43-14.92,12.43-14.92l-9.84-4.61A320.11,320.11,0,0,1,353,212.74,95.86,95.86,0,0,0,357.61,181.13Z"/><path class="cls-9" d="M321.24,183.9l-14.1,20.77s-13.86,34.61-15.94,48.22a63.48,63.48,0,0,0-.69,10c1.49.27,3,.54,3.81.64,1.84.23,4.5-8.08,6.34-12.81s19.24-37.61,19.24-37.61,3.26,1.27,4.17,1.73,1.63-1.27,9.59-9.44,13.7-21.48,13.7-21.48Z"/><path class="cls-7" d="M301.49,241.93s11.52-25.27,14.75-34.21,8-23.59,8-23.59l9.25-14.06s7.05-9.95,6-11.53c-6-9-29.68-2.45-29.68-2.45S292.59,179.4,285,196s-16.38,53.42-13.27,57.69,21.81,4.5,21.81,4.5Z"/><path class="cls-4" d="M313.24,160.45s14.52,2.77,16.69,4,.53,7.27-2.76,11.94-8.14,14.69-13,14.31-13.33-1.83-14.28-3.35S308.82,163,313.24,160.45Z"/><path class="cls-4" d="M287.29,207a3.25,3.25,0,0,1,2-.15c3.49.84,16.25,4,17.83,6.83s-8.92,28.93-12.31,37.27a3.31,3.31,0,0,1-3.73,2c-4-.83-11.59-2.45-15.76-3.75a3.31,3.31,0,0,1-2.31-3.57C274.08,237.22,278.07,210.82,287.29,207Z"/><polygon class="cls-7" points="280.19 215.76 281.05 223.3 295.93 228.81 294.63 229.87 280.19 224.65 280.19 215.76"/><path class="cls-7" d="M289.41,221a2.28,2.28,0,1,1-2.28-2.28A2.28,2.28,0,0,1,289.41,221Z"/><circle class="cls-7" cx="314" cy="165.14" r="2.28"/><path class="cls-7" d="M328,168.09a2.28,2.28,0,1,1-2.28-2.28A2.28,2.28,0,0,1,328,168.09Z"/><path class="cls-7" d="M332.53,166.68s3.61.09,8.57.69,10.79,7.88,10.56,13.87-6,26-18.12,40.5-36.8,26-36.8,26l3.58-6.46s19.85-10.6,29.31-21.23c13-14.63,19.47-41.62,16.81-44.5s-12.67-3.38-12.67-3.38Z"/><path class="cls-11" d="M337.49,169.29s7.57,1.52,9.46,7.45-3,13.89-10.22,20.58-7.7,8.06-7.7,8.06L312.5,193.65S329.28,168.41,337.49,169.29Z"/><polygon class="cls-5" points="313.88 194.03 294.07 216.18 275.4 267.67 269.97 275.36 271.61 281.17 281.83 282.18 282.59 279.91 286.25 279.15 284.74 269.43 305.75 224.76 328.31 200.97 313.88 194.03"/><path class="cls-10" d="M307.14,197.69l6.49-7s16,9.78,17.55,13.51l-6.5,7.06S311.17,200.27,307.14,197.69Z"/><path class="cls-12" d="M368,389,339.56,411H321.89L307.7,439.34H241.94l-16.62-2.6-21.11,9.86S164,459.77,147.53,462.8c-1.23.23-51.91,11.49-51.91,11.49V500H564.38l-57.11-32.91s-24.78-42.64-26.16-46.27-36.69-34.38-36.69-34.38L431.26,389H368Z"/><path class="cls-7" d="M308.91,164.43l1.64,5.45,15.15,3.46,6-3.46-1.74,2.42s-4.84,2.25-5.1,2.25-15-3.35-15-3.35L308.13,165Z"/><polygon class="cls-10" points="301.35 267.08 338.5 254.51 317.04 266.51 322 261.55 301.35 267.08"/><path class="cls-13" d="M353.24,162.27l-.8-4.1s-1.94,4.82-.47,8.16c1,2.27,2.61,5.36,3.55,7.12l3.06-3C355.44,168.64,353.24,162.27,353.24,162.27Z"/><path class="cls-14" d="M345.31,160.59s-1.87-10.27-1.53-16.06a14.55,14.55,0,0,1,3.58-9s1.27-4.07,4.73-4.68,17.82,2.17,20.85,2.34,2.43,3.2,2.43,3.2L372.69,140a13.18,13.18,0,0,1-7.71,1.6c-4.24-.51-5.4-1.6-5.4-1.6s.56,6.45-1,8.87-2.86,4.07-2.86,4.07l-2.07,5-1-.63,1.12-6.14s-1.12-3.46-3.37-3.38-2.44,6.06-1.13,7.62,2.19,2.53,2.19,2.53S346.84,161.08,345.31,160.59Z"/><path class="cls-15" d="M372.21,153.35c0,1.1-.51,2-1.13,2s-1.12-.89-1.12-2,.5-2,1.12-2S372.21,152.25,372.21,153.35Z"/><path class="cls-15" d="M367.12,149.86s2.77-1.5,4.21-1.32,2.42,1.9,2.59,1.55-.72-2.07-1.71-2.53a3.77,3.77,0,0,0-3.36,0C367.64,148.13,365.67,150,367.12,149.86Z"/><path class="cls-2" d="M373,164.6a7,7,0,0,1-5.33-1.24.27.27,0,0,0-.37.35c.6,1.22,3.1,2.32,5.55,1.82Z"/><path class="cls-16" d="M444.42,386.44,440,392.58l5.62,17.67,24.09,23.89-21.41-16.4,2.41,8L463,439.34s20.88,6.78,22.49,7.05,18.74,21.14,18.74,21.14l1.33,14.73,8.3,7-12.58-6.16.54-13.38L486.3,452.54l-7.5,12.85,9.11,19L504,500h60.41l-57.11-32.91-27.43-48.5Z"/><polygon class="cls-16" points="427.32 389.03 383.41 396.06 373.03 396.06 375.92 397.84 394.27 399.63 395.44 402.13 387.05 406.41 363.78 407.49 351.36 429.61 361.68 402.13 368.04 389.03 427.32 389.03"/><path class="cls-16" d="M307.7,439.34H241.94l-16.62-2.6v5L207.8,454.59l-28.56,8.21H202.8l37.84-11.06L216.37,462.8s17.84-.35,18.91,0S307.7,455,307.7,455s10,16.59,9,16.68-12.11-12-12.66-12-6.87,2.86-6.87,2.86V477.8l19.61,14.63-15.4-2.5L287,500h70.6s-4.07-24.35-6.28-25.42-14-15-15.42-15.7S307.7,439.34,307.7,439.34Z"/><polygon class="cls-16" points="355.57 443.22 411.25 439.34 422.61 449.95 432.67 452.45 465.87 500 451.94 500 431.96 471.63 422.61 469.67 414.11 461.02 408.76 444.96 355.57 443.22"/><text class="cls-17" transform="translate(469.95 240.85)">“<tspan class="cls-18" x="21.68" y="0">N</tspan><tspan class="cls-19" x="44.02" y="0">o</tspan><tspan x="61.67" y="0">t all who </tspan><tspan class="cls-20" x="206.67" y="0">w</tspan><tspan x="231.67" y="0">ander a</tspan><tspan class="cls-21" x="360.28" y="0">r</tspan><tspan x="375.16" y="0">e lo</tspan><tspan class="cls-22" x="429.48" y="0">s</tspan><tspan x="443.54" y="0">t”... </tspan><tspan x="103.68" y="36">Explo</tspan><tspan class="cls-21" x="195.86" y="36">r</tspan><tspan x="210.75" y="36">e and s</tspan><tspan class="cls-23" x="324.26" y="36">e</tspan><tspan x="341.82" y="36">t out</tspan></text></svg>